<svg width="20" height="20" viewBox="0 0 20 20" fill="none" xmlns="http://www.w3.org/2000/svg">
<g clip-path="url(#clip0)">
<path d="M17.3113 0.384827H5.20154C3.69543 0.387047 2.47502 1.60746 2.4728 3.11356V14.1738C0.974671 14.3374 -0.107187 15.6845 0.0563964 17.1826C0.20797 18.5708 1.38312 19.6205 2.77958 19.6152H12.645C14.1511 19.6129 15.3715 18.3925 15.3737 16.8864V5.8423H17.3113C18.8184 5.8423 20.04 4.62062 20.04 3.11356C20.04 1.6065 18.8183 0.384827 17.3113 0.384827ZM10.7115 18.8078H2.77958C1.7173 18.8078 0.856146 17.9467 0.856146 16.8844C0.856146 15.8221 1.7173 14.961 2.77958 14.961H10.7115C9.65168 16.0242 9.65168 17.7445 10.7115 18.8078ZM14.5705 3.11341V16.8864C14.5705 17.9476 13.7102 18.8078 12.649 18.8078C11.5879 18.8078 10.7276 17.9476 10.7276 16.8864C10.7276 15.8252 11.5879 14.965 12.649 14.965C12.872 14.965 13.0527 14.7843 13.0527 14.5613C13.0527 14.3384 12.872 14.1577 12.649 14.1577H3.29627V3.11356C3.29844 2.05956 4.14758 1.2032 5.20154 1.19215H15.3616C14.8541 1.70267 14.5696 2.39354 14.5705 3.11341ZM16.9077 5.03498H15.3778L16.5 5.5L17.3113 5.03498H16.9077ZM17.715 4.99461L17.3113 5.03498H16.9077H15.3778V3.11356C15.3806 2.05239 16.2432 1.19447 17.3043 1.19729C18.3655 1.20012 19.2234 2.06269 19.2206 3.12386C19.2182 4.02291 18.5927 4.80005 17.715 4.99461Z" fill="#49A2D7"/>
<path d="M11.7779 4.38916H5.87241C5.64949 4.38916 5.46875 4.5699 5.46875 4.79282C5.46875 5.01574 5.64949 5.19648 5.87241 5.19648H11.7779C12.0009 5.19648 12.1816 5.01574 12.1816 4.79282C12.1816 4.5699 12.0009 4.38916 11.7779 4.38916Z" fill="#49A2D7"/>
<path d="M11.7779 7.27124H5.87241C5.64949 7.27124 5.46875 7.45198 5.46875 7.6749C5.46875 7.89782 5.64949 8.07856 5.87241 8.07856H11.7779C12.0009 8.07856 12.1816 7.89782 12.1816 7.6749C12.1816 7.45198 12.0009 7.27124 11.7779 7.27124Z" fill="#49A2D7"/>
<path d="M11.7779 10.1533H5.87241C5.64949 10.1533 5.46875 10.3341 5.46875 10.557C5.46875 10.7799 5.64949 10.9606 5.87241 10.9606H11.7779C12.0009 10.9606 12.1816 10.7799 12.1816 10.557C12.1816 10.3341 12.0009 10.1533 11.7779 10.1533Z" fill="#49A2D7"/>
</g>
<defs>
<clipPath id="clip0">
<rect width="20" height="20"/>
</clipPath>
</defs>
</svg>
