<svg width="22" height="22" viewBox="0 0 22 22" fill="none" xmlns="http://www.w3.org/2000/svg">
<path d="M9 16C8.5451 16.4549 7.05552 16.9098 5.56675 17.2706C4.57882 17.51 4.44629 18.9513 5.3937 19.3198L8.46288 20.5133C10.0948 21.148 11.9052 21.148 13.5371 20.5133L16.6063 19.3198C17.5537 18.9513 17.4212 17.51 16.4332 17.2706C14.9445 16.9098 13.4549 16.4549 13 16C12 15 15 15 15 10C15 5 11 5 11 5C11 5 7 5 7 10C7 15 10 15 9 16Z" stroke="white" stroke-linecap="round"/>
<path fill-rule="evenodd" clip-rule="evenodd" d="M11 21C16.5228 21 21 16.5228 21 11C21 5.47715 16.5228 1 11 1C5.47715 1 1 5.47715 1 11C1 16.5228 5.47715 21 11 21Z" fill="white" fill-opacity="0.2" stroke="white"/>
</svg>
