<svg width="523" height="491" viewBox="0 0 523 491" fill="none" xmlns="http://www.w3.org/2000/svg">
<path fill-rule="evenodd" clip-rule="evenodd" d="M36.9628 234.537C36.9628 234.537 14.7335 215.548 45.9196 149.983C77.1058 84.4186 140.264 98.7893 180.634 73.0003C240.282 34.8959 215.834 5.07634 290.211 0.269718C383.857 -5.78219 389.161 92.0171 436.013 92.0171C439.095 92.0171 512.053 62.7016 522.732 142.954C528.11 183.37 436.013 245.002 436.013 245.002C436.013 245.002 397.683 279.745 395.578 296.902C386.75 368.852 405.16 451.26 198.857 489.197C172.176 494.104 127.872 476.356 103.43 443.572C84.2814 417.887 7.46809 436.11 0.297781 351.669C-3.3162 309.108 36.9628 234.537 36.9628 234.537Z" fill="#49A2D7" fill-opacity="0.25"/>
<path d="M174.572 177.491C175.268 177.081 176.165 177.312 176.575 178.007L178.231 180.801C184.806 191.832 187.436 195.415 190.231 197.034C192.529 198.365 194.904 197.952 199.252 195.402L199.833 195.053C202.568 193.349 215.082 184.753 219.92 181.666C220.601 181.232 221.505 181.432 221.94 182.113C222.374 182.794 222.174 183.698 221.493 184.132L220.749 184.612C215.357 188.107 203.245 196.425 201.101 197.707C195.837 200.855 192.424 201.562 189.003 199.7L188.765 199.565C185.09 197.436 182.232 193.352 174.056 179.494C173.645 178.798 173.876 177.901 174.572 177.491Z" fill="white"/>
<path d="M198.26 194.398C199.061 194.291 199.797 194.853 199.904 195.654C200.402 199.375 201.595 203.106 203.49 206.851C203.854 207.572 203.565 208.452 202.844 208.816C202.124 209.181 201.244 208.892 200.879 208.171C198.841 204.141 197.547 200.097 197.004 196.042C196.897 195.241 197.459 194.505 198.26 194.398Z" fill="white"/>
<path fill-rule="evenodd" clip-rule="evenodd" d="M368.664 283.737C368.428 284.334 367.91 285.161 367.31 285.943L367.828 286.48L368.428 287.119L368.561 287.247C368.619 287.299 368.665 287.33 368.698 287.339C368.892 287.367 369.027 287.546 369.001 287.741C368.973 287.932 368.795 288.07 368.601 288.042C368.425 288.038 367.787 287.789 367.026 287.171C366.888 287.059 366.751 286.93 366.612 286.789C366.173 287.278 365.73 287.699 365.347 287.96C364.783 288.349 364.295 288.38 364.062 288.222C363.833 288.069 363.613 287.554 363.986 286.513C364.044 286.324 364.245 286.225 364.431 286.284C364.617 286.343 364.719 286.541 364.661 286.729C364.604 286.922 364.596 287.099 364.596 287.24L364.812 287.093C364.888 287.038 364.967 286.977 365.039 286.904C365.3 286.647 365.592 286.334 365.885 285.996C365.421 285.456 364.947 284.823 364.565 284.092C364.378 283.735 364.229 283.357 364.088 282.959C363.99 282.737 364.091 282.476 364.314 282.377C364.537 282.279 364.798 282.381 364.895 282.603C365.321 283.496 365.866 284.266 366.403 284.925L366.582 285.14C367.072 284.499 367.493 283.851 367.683 283.357C367.789 283.088 368.094 282.954 368.364 283.057C368.636 283.164 368.77 283.468 368.664 283.737Z" fill="white"/>
<path fill-rule="evenodd" clip-rule="evenodd" d="M151.023 99.2102L150.131 99.0488C145.153 98.1232 141.336 96.9869 134.205 94.5146C133.387 94.2311 132.954 93.3383 133.237 92.5206C133.521 91.7028 134.414 91.2697 135.231 91.5532L137.008 92.1649C143.264 94.2996 146.774 95.2783 151.567 96.1235C167.697 98.9675 179.773 90.6867 180.761 74.8937C180.815 74.0299 181.559 73.3734 182.423 73.4275C183.287 73.4815 183.944 74.2256 183.89 75.0894C182.778 92.851 168.905 102.363 151.023 99.2102Z" fill="#23214C"/>
<path fill-rule="evenodd" clip-rule="evenodd" d="M191.325 116.123L192.225 118.123L194.277 118.712C194.388 118.744 194.452 118.86 194.42 118.97C194.41 119.005 194.392 119.036 194.367 119.061L192.808 120.613L192.895 122.846C192.9 122.961 192.81 123.058 192.695 123.063C192.656 123.064 192.617 123.055 192.583 123.035L190.818 122.03C190.763 121.999 190.697 121.994 190.638 122.018L188.751 122.767C188.643 122.81 188.522 122.758 188.479 122.65C188.465 122.614 188.461 122.574 188.468 122.536L188.865 120.337L187.537 118.583C187.468 118.491 187.486 118.36 187.578 118.291C187.606 118.269 187.64 118.255 187.675 118.25L189.788 117.953L190.958 116.098C191.02 116 191.149 115.971 191.246 116.032C191.281 116.054 191.308 116.086 191.325 116.123Z" fill="#23214C"/>
<path d="M397.475 65.8582C398.28 65.8007 398.98 66.4073 399.038 67.2131C399.095 68.0189 398.489 68.7187 397.683 68.7762C391.911 69.1879 387.378 71.4246 385.364 76.9575C385.243 77.2906 385.142 77.612 385.061 77.9175L385.006 78.1274L385.095 77.9432C387.63 72.7661 392.52 69.1689 398.187 68.2559L398.558 68.2002C399.358 68.0885 400.097 68.6466 400.209 69.4467C400.321 70.2467 399.763 70.9858 398.963 71.0975C393.698 71.8324 389.195 75.3312 387.23 80.3497L387.103 80.6865C386.169 83.2515 383.928 84.4814 382.486 82.2863C381.606 80.9475 381.664 78.5696 382.615 75.957C385.027 69.3299 390.562 66.3514 397.475 65.8582Z" fill="white"/>
<path d="M390.812 54.9613C391.618 54.9038 392.318 55.5104 392.375 56.3162C392.433 57.1219 391.826 57.8217 391.02 57.8792C381.839 58.5343 373.788 64.4969 370.584 73.2982C369.635 75.9072 369.458 78.1378 369.798 79.2675L369.84 79.3936L369.904 79.3003C370.068 79.0526 370.252 78.6968 370.432 78.2354L370.509 78.0312C373.893 68.7347 382.097 62.2241 391.719 60.8809C392.519 60.7693 393.258 61.3273 393.37 62.1274C393.481 62.9274 392.923 63.6665 392.123 63.7782C383.706 64.9532 376.511 70.571 373.412 78.6204L373.258 79.0317C372.003 82.4792 369.29 83.9685 367.555 81.3287C366.366 79.5198 366.45 76.1049 367.835 72.2977C371.437 62.4022 380.49 55.6977 390.812 54.9613Z" fill="white"/>
<path d="M381.834 40.4318C382.64 40.3743 383.34 40.9809 383.397 41.7867C383.455 42.5924 382.848 43.2922 382.043 43.3497C368.947 44.284 357.464 52.7885 352.895 65.3417C351.34 69.6138 351.211 73.2347 352.06 74.7398L352.137 74.867C352.263 75.0584 352.221 75.064 352.253 75.0376L352.272 75.0248C352.703 74.7887 353.271 73.9841 353.79 72.6497L353.893 72.3757C358.559 59.5543 369.874 50.5755 383.145 48.7231C383.945 48.6114 384.684 49.1694 384.795 49.9695C384.907 50.7696 384.349 51.5087 383.549 51.6204C371.499 53.3024 361.205 61.369 356.812 72.9186L356.642 73.3763C355.018 77.8367 351.762 79.6237 349.692 76.4735C348.149 74.1249 348.261 69.5197 350.146 64.3411C355.113 50.6939 367.598 41.4474 381.834 40.4318Z" fill="white"/>
<path d="M365.806 26.7768C366.598 26.6215 367.367 27.1383 367.522 27.9311C367.677 28.7238 367.161 29.4923 366.368 29.6476C354.513 31.9693 344.979 41.0242 342.214 53.0013C341.278 57.0548 341.561 60.3507 342.479 61.6081L342.601 61.7658L342.611 61.7877L342.628 61.7745C342.957 61.4777 343.341 60.7196 343.639 59.5443L343.702 59.2861C346.546 46.968 355.937 37.433 367.932 34.2309C368.713 34.0225 369.514 34.4863 369.723 35.2668C369.931 36.0473 369.467 36.8489 368.687 37.0573C357.88 39.9422 349.389 48.4506 346.664 59.4768L346.552 59.9442C345.549 64.2886 342.669 66.3625 340.337 63.6124C338.63 61.601 338.211 57.333 339.363 52.3432C342.39 39.2316 352.828 29.3183 365.806 26.7768Z" fill="white"/>
<path d="M203.664 207.173L204.508 206.866C212.489 204.002 219.222 202.739 220.932 204.479C222.432 206.005 223.769 208.769 225.036 212.823C225.277 213.594 224.848 214.414 224.077 214.655C223.306 214.896 222.485 214.466 222.244 213.695C221.148 210.19 220.03 207.83 218.973 206.664L218.929 206.618L218.891 206.62C218.691 206.579 218.391 206.558 218.008 206.566C217.166 206.582 216.013 206.731 214.637 207.003C211.807 207.564 208.229 208.607 204.676 209.918C198.735 212.109 193.787 214.684 191.053 217.01C190.049 217.864 188.216 215.485 189.98 214.123C193.153 211.671 197.965 209.275 203.664 207.173Z" fill="white"/>
<path d="M199.648 179.541C199.648 184.42 204.807 189.702 205.905 190.003C206.684 190.216 193.26 198.963 193.26 198.963C188.41 199.601 185.562 195.501 185.562 189.394C185.562 188.586 199.648 178.733 199.648 179.541Z" fill="white"/>
<path d="M356.958 18.6657C357.754 18.5271 358.511 19.0599 358.65 19.8557C358.789 20.6516 358.256 21.4091 357.46 21.5477C353.675 22.207 349.858 24.498 345.923 28.1421C340.812 32.874 337.437 39.4124 335.576 48.1301C334.077 55.1537 335.461 63.9299 339.38 71.6451C343.839 80.4227 351.727 82.592 360.924 84.2719C370.366 85.9964 372.975 84.9314 381.896 81.7597L382.718 81.4615C383.937 80.9995 389.638 78.769 391.009 78.3545C393.893 77.4822 395.86 77.5551 397.287 79.0755C397.84 79.6646 397.811 80.5902 397.222 81.143C396.669 81.6613 395.821 81.6678 395.262 81.1812L395.154 81.0774C394.733 80.6288 393.863 80.5769 392.112 81.0791L391.855 81.1546C390.537 81.5533 384.355 83.9797 383.554 84.2719C373.918 87.7894 370.65 89.0221 360.398 87.1497C350.24 85.2942 341.621 82.5165 336.772 72.97C332.557 64.6733 331.072 55.2172 332.715 47.5193C334.702 38.2151 338.38 31.1394 343.935 25.9956C348.284 21.9691 352.616 19.4221 356.958 18.6657Z" fill="white"/>
<path d="M425.768 135.052C417.43 134.626 410.863 141.066 410.795 149.711C410.737 156.995 414.839 162.993 420.475 164.155C422.754 164.624 427.13 164.059 430.375 162.239C435.304 159.596 439.071 154.163 439.546 149.533C440.32 141.99 434.214 135.484 425.768 135.052Z" fill="white"/>
<path d="M274.669 133.529C277.332 138.909 281.468 151.334 279.679 151.274C274.71 151.108 268.063 143.471 263.412 133.146L263.045 132.315C258.985 122.94 256.554 117.051 259.377 115.922C262.298 114.755 269.172 122.427 274.669 133.529Z" fill="white"/>
<path fill-rule="evenodd" clip-rule="evenodd" d="M259.377 115.805C262.297 114.638 269.272 121.959 274.77 133.061C277.433 138.441 279.24 143.601 279.712 147.302C279.712 147.302 270.717 128.349 265.23 121.407C263.123 118.74 259.377 115.805 259.377 115.805Z" fill="white"/>
<path d="M257.845 163.537C258.06 162.758 258.865 162.3 259.643 162.515C260.422 162.729 260.88 163.534 260.666 164.313C260.39 165.315 256.516 167.943 248.062 173.154L242.726 176.419C232.192 182.832 225.163 186.935 224.285 186.935C218.469 186.935 213.228 181.449 209.401 172.792C206.06 165.233 204.326 156.235 205.109 150.338C205.354 148.498 211.485 143.734 220.953 137.351L222.309 136.442C230.684 130.863 237.843 126.724 240.433 126.202C241.225 126.042 241.997 126.554 242.157 127.346C242.257 127.842 219.17 147.302 216.915 160.218C215.388 168.963 221.16 183.869 224.026 184.004L224.285 184.01C224.052 184.01 224.126 183.956 224.154 183.94L224.417 183.804C224.612 183.703 224.842 183.578 225.108 183.432L226.325 182.751C226.791 182.488 227.31 182.19 227.877 181.863L229.329 181.019C232.1 179.401 235.558 177.341 239.086 175.207L242.44 173.167C246.52 170.675 250.205 168.377 252.975 166.592L254.402 165.665C255.286 165.085 256.033 164.584 256.63 164.168L256.847 164.016C257.176 163.784 257.449 163.584 257.663 163.42C257.663 163.42 257.904 163.325 257.845 163.537Z" fill="white"/>
<path fill-rule="evenodd" clip-rule="evenodd" d="M260.744 134.347C257.21 126.499 255.648 119.307 256.832 114.952C254.693 115.632 252.019 116.853 249.365 118.376C245.838 120.4 243.038 122.662 242.973 123.153C242.291 128.286 244.908 138.273 249.257 147.176C253.909 156.7 259.444 162.816 263.728 162.816C264.138 162.816 265.312 162.574 266.489 162.163C268.162 161.579 269.73 160.727 271.015 159.611C271.654 159.056 272.315 158.429 273.005 157.729L273.837 156.869C274.328 156.35 274.834 155.791 275.624 154.906L276.725 153.677L276.773 153.625C271.261 151.611 265.497 144.512 261.185 135.306L260.744 134.347ZM240.073 122.768C240.528 119.343 253.349 111.941 259.2 111.463C259.444 111.309 259.706 111.176 259.985 111.065C265.052 109.04 272.773 117.713 278.966 129.916L279.391 130.763C282.186 136.409 284.094 141.857 284.613 145.932C285.234 150.801 283.824 154.03 280.127 154.195C280.028 154.579 279.778 154.9 279.446 155.093L279.389 155.122L279.244 155.266C279.099 155.415 278.929 155.6 278.665 155.893L276.848 157.922C276.188 158.648 275.721 159.141 275.088 159.783C274.348 160.534 273.633 161.211 272.933 161.819C270.102 164.279 265.915 165.742 263.728 165.742C262.568 165.742 261.395 165.472 260.22 164.957C258.964 166.267 255.1 168.815 248.062 173.154L242.726 176.42C232.192 182.832 225.163 186.936 224.284 186.936C222.292 186.936 220.368 186.292 218.544 185.098C218.528 185.11 218.51 185.121 218.493 185.132L217.748 185.612C215.157 187.292 211.013 190.086 207.169 192.677L207.168 192.678L206.929 192.839C207.426 196.391 208.557 199.953 210.327 203.527C216.609 201.585 221.585 200.928 223.021 202.389C224.521 203.915 225.858 206.679 227.125 210.733C227.366 211.504 226.937 212.325 226.166 212.566C225.395 212.807 224.574 212.377 224.333 211.606C223.237 208.1 222.119 205.741 221.062 204.574L221.018 204.528L220.98 204.53C220.78 204.49 220.48 204.469 220.097 204.476C219.255 204.493 218.102 204.641 216.726 204.914C213.896 205.475 210.318 206.518 206.765 207.828C198.643 210.824 192.375 214.537 191.087 217.35C190.71 218.174 190.758 219.379 191.209 221.224L191.293 221.556C191.36 221.818 191.431 222.077 191.523 222.405L192.052 224.274L192.074 224.358C192.089 224.415 192.105 224.475 192.123 224.545C192.326 225.327 191.856 226.125 191.074 226.328C190.292 226.531 189.494 226.062 189.291 225.28L189.031 224.334L188.599 222.807C188.549 222.626 188.505 222.46 188.461 222.29C187.776 219.648 187.665 217.796 188.427 216.132C189.719 213.312 193.759 210.39 199.384 207.734L198.161 204.573L197.858 203.774C197.395 202.528 196.856 200.838 196.525 199.605C192.13 201.974 189.07 202.37 186.003 200.699L185.764 200.565C185.158 200.214 184.574 199.809 183.984 199.316L166.841 209.729C167 210.072 167.161 210.418 167.324 210.767C168.093 212.417 166.736 213.585 164.656 214.493L164.431 214.589C162.643 215.33 161.029 215.5 160.068 214.445C156.081 210.069 151.861 199.603 154.132 197.209C154.568 196.749 155.719 196.065 157.895 194.924L158.068 194.834C158.113 194.803 158.159 194.774 158.208 194.748L174.233 186.066C174.27 186.046 174.307 186.027 174.344 186.011C173.355 184.375 172.27 182.552 171.07 180.519C170.888 180.224 170.82 179.88 170.866 179.549C170.896 179.338 170.971 179.132 171.092 178.949C171.158 178.847 171.237 178.753 171.329 178.67C174.624 175.545 179.113 172.287 184.744 168.779L185.427 168.356C187.865 166.854 192.808 164.034 197.007 161.639C200.265 159.781 203.074 158.179 203.921 157.643L204.126 157.507C204.432 157.283 204.796 157.196 205.145 157.233C204.867 154.696 204.843 152.339 205.108 150.338C205.353 148.498 211.484 143.734 220.952 137.351L222.308 136.442C230.243 131.156 237.086 127.164 239.987 126.314C239.909 125.004 239.934 123.811 240.073 122.768ZM240.307 129.28C237.466 130.319 230.351 134.543 222.587 139.777L221.344 140.62C217.85 143.004 214.622 145.328 212.184 147.223L211.507 147.754C210.419 148.616 209.539 149.359 208.9 149.955C208.58 150.254 208.328 150.509 208.15 150.713L208.025 150.86C207.998 150.888 207.991 150.877 208.001 150.785L208.008 150.724C208.005 150.747 208.003 150.768 208.001 150.785L207.962 151.099C206.556 163.443 215.481 183.602 224.025 184.004L224.226 184.009C224.243 184.01 224.262 184.01 224.284 184.01L224.226 184.009C224.065 184 224.128 183.954 224.153 183.94L224.417 183.804C224.611 183.703 224.842 183.578 225.107 183.432L226.324 182.752C226.79 182.488 227.309 182.19 227.876 181.863L229.328 181.02C232.1 179.401 235.558 177.341 239.085 175.207L242.44 173.167C246.519 170.675 250.205 168.377 252.975 166.592L254.402 165.665C255.285 165.085 256.032 164.584 256.629 164.168L256.846 164.016C257.162 163.793 257.427 163.6 257.637 163.44C253.869 160.675 250.159 155.569 246.866 148.941L246.629 148.46C243.455 141.962 241.159 134.926 240.307 129.28ZM205.549 160.069C204.493 160.734 201.38 162.511 197.916 164.489C193.811 166.833 189.213 169.459 186.962 170.846C181.646 174.124 177.359 177.162 174.176 180.023L175.231 181.801C179.843 189.54 182.515 193.613 184.663 195.914C183.949 194.221 183.58 192.072 183.58 189.378C183.58 189.253 183.595 189.133 183.624 189.018C183.482 188.458 183.682 187.842 184.177 187.479L185.173 186.739C185.77 186.287 186.754 185.536 187.871 184.681C190.318 182.812 193.409 180.45 194.512 179.66C197.981 177.175 200.537 175.781 202.865 175.297C203.977 175.066 204.841 175.723 205.092 176.742L205.133 176.928C205.191 177.231 205.202 177.529 205.2 178.18L205.2 178.387C205.188 180.821 205.429 182.225 206.46 183.848C207.165 184.958 208.202 185.971 209.646 186.878C209.797 186.973 209.925 187.091 210.027 187.225C212.357 185.661 214.54 184.205 216.149 183.162C213.613 180.706 211.327 177.151 209.401 172.792C207.606 168.731 206.275 164.256 205.549 160.069ZM281.711 146.302C281.239 142.601 279.433 137.441 276.769 132.061C271.272 120.959 263.991 112.614 261.071 113.781C258.248 114.909 258.985 122.94 263.045 132.315L263.412 133.146C268.062 143.471 274.71 151.108 279.679 151.274C281.468 151.334 282.167 149.873 281.711 146.302ZM175.856 188.484C178.393 192.587 180.247 195.297 181.862 197.182L165.611 207.053C163.946 203.404 162.457 200.007 161.012 196.556L175.626 188.638C175.709 188.593 175.786 188.541 175.856 188.484ZM207.522 204.45C205.945 201.188 204.855 197.918 204.257 194.64C202.157 196.053 200.329 197.277 199.154 198.04C199.356 199.049 200.104 201.444 200.748 203.147L201.948 206.237L202.062 206.539C203.242 206.041 204.475 205.555 205.753 205.084L206.597 204.777C206.907 204.665 207.216 204.556 207.522 204.45ZM207.469 188.946C205.971 187.908 204.823 186.726 203.99 185.417C202.644 183.296 202.29 181.486 202.274 178.751L202.274 178.506L202.067 178.584C200.584 179.159 198.814 180.201 196.59 181.771L196.215 182.038C195.156 182.796 192.143 185.099 189.713 186.956L189.712 186.957C188.361 187.989 187.19 188.884 186.636 189.299L186.505 189.396C186.508 194.262 187.723 196.495 189.982 197.578L190.162 197.661C190.701 197.899 191.085 198.019 192.183 198.32C192.205 198.326 192.226 198.332 192.248 198.339C193.387 197.956 194.692 197.317 196.252 196.402L196.833 196.053C198.121 195.251 201.577 192.92 205.379 190.355C206.068 189.891 206.768 189.419 207.469 188.946ZM158.426 197.955L158.651 198.488C160.204 202.172 161.818 205.82 163.651 209.798L164.363 211.342C164.13 211.499 163.822 211.665 163.485 211.813C163 212.024 162.508 212.173 162.137 212.223L162.019 212.235L161.841 212.021C160.457 210.317 158.85 207.42 157.688 204.54C157.07 203.006 156.629 201.599 156.431 200.518C156.35 200.077 156.312 199.707 156.316 199.426L156.324 199.241C156.327 199.197 156.327 199.173 156.316 199.17L156.36 199.14C156.607 198.97 157.239 198.6 158.177 198.09L158.426 197.955ZM178.603 194.732C178.038 194.156 177.112 194.147 176.535 194.712C175.521 195.707 174.099 196.634 171.616 198.012L169.09 199.415C168.422 199.795 167.876 200.123 167.381 200.444C166.967 200.712 166.597 200.971 166.265 201.228C165.626 201.722 165.508 202.64 166.002 203.28C166.496 203.919 167.415 204.037 168.054 203.543C168.318 203.339 168.623 203.125 168.973 202.898C169.296 202.689 169.651 202.471 170.062 202.231L170.867 201.77L173.434 200.348C175.9 198.964 177.386 197.976 178.584 196.801C179.16 196.235 179.169 195.309 178.603 194.732Z" fill="#23214C"/>
<path d="M145.886 343.27C153.2 384.051 180.615 414.709 215.598 421.937C222.019 423.264 233.138 423.438 244.653 421.948C259.488 420.028 273.925 415.624 286.623 408.486C321.503 389.739 347.971 351.479 351.402 317.987C354.415 288.567 343.176 261.389 322.829 242C322.829 242 258.914 273.393 227.539 291.237C200.237 306.764 145.886 343.27 145.886 343.27Z" fill="white"/>
<path d="M294.736 221.658C281.626 215.19 265.2 210.08 249.094 209.257C190.021 206.236 143.562 253.427 143.077 314.295C143.077 314.295 209.008 272.3 243.261 252.038C260.302 241.958 294.736 221.658 294.736 221.658Z" fill="white"/>
<path fill-rule="evenodd" clip-rule="evenodd" d="M416.241 190.637C416.042 200.807 405.281 217.733 387.982 236.887C375.451 250.762 360.87 264.174 348.644 273.212L347.883 273.769L348.388 276.015C351.361 289.045 355.242 303.21 353.776 317.495C350.217 352.166 323.098 391.281 287.261 410.5C274.191 417.832 259.334 422.354 244.094 424.322L242.641 424.502C231.278 425.84 220.404 425.618 213.759 424.248C187.966 418.93 166.129 400.9 152.927 374.806C152.883 374.718 152.848 374.628 152.822 374.537C151.084 375.528 148.746 376.636 147.678 376.999L144.752 377.987C113.219 388.593 81.9588 397.467 69.1884 391.928C64.3268 389.82 62.6652 385.766 64.6983 380.318C66.6742 375.025 72.1527 368.203 81.3442 359.714L81.8492 359.249C90.5589 351.265 109.901 336.676 139.874 315.482L139.882 315.092C141.344 252.291 190.127 204.415 251.445 208.323C270.2 209.518 285.136 216.183 292.596 220.276L295.877 218.515C326.647 202.063 351.336 190.497 370.173 183.575C401.152 172.191 416.472 177.514 416.241 190.637ZM371.182 190.321C336.542 203.05 281.797 231.679 205.576 277.73L203.26 279.131C143.908 315.06 104.607 342.356 83.826 361.406L82.8018 362.352L81.8306 363.262C66.2307 378.001 63.4656 386.258 70.3523 389.245C82.1413 394.357 113.8 385.738 144.804 375.569L147.678 374.621C150.443 373.705 152.276 373.179 153.411 372.937C153.461 372.901 153.515 372.869 153.572 372.84C153.96 372.644 154.394 372.637 154.768 372.784C154.85 372.8 154.903 372.825 154.93 372.86C155.183 372.997 155.398 373.209 155.537 373.485C168.354 398.817 189.472 414.254 214.35 419.383C220.807 420.714 231.702 420.909 243.039 419.507L243.719 419.421C258.608 417.498 273.109 415.084 285.854 407.935C320.874 389.154 347.408 350.883 350.866 317.196C352.344 302.799 350.458 288.667 345.443 275.514C345.03 275.804 344.619 276.087 344.212 276.365C343.442 276.89 343.729 276.04 345.074 273.814C345.145 273.524 345.305 273.26 345.535 273.061L345.949 272.405C346.094 272.177 346.247 271.939 346.407 271.691L348.141 270.229C364.48 256.409 377.037 244.642 385.811 234.926L386.813 233.812C403.047 215.644 413.138 199.597 413.305 190.583C413.488 180.695 400.442 179.569 371.182 190.321ZM224.303 375.301C228.228 387.296 222.291 395.011 211.84 395.41C202.183 395.778 193.389 389.693 193.837 381.046C194.225 373.573 199.342 365.584 205.641 362.65C213.26 359.102 220.411 363.406 224.303 375.301ZM207.185 365.965C202.144 368.312 197.808 375.082 197.489 381.236C197.171 387.364 203.946 392.052 211.7 391.756C219.807 391.446 223.969 386.039 220.828 376.439C217.557 366.443 212.585 363.45 207.185 365.965ZM304.097 350.859C309.105 360.321 307.794 369.617 300.094 373.784L299.878 373.897L299.766 374.009C289.44 384.234 276.541 385.474 268.129 378.063L267.841 377.804C258.151 368.928 260.46 353.678 275.878 341.723C285.801 334.03 297.921 339.189 304.097 350.859ZM277.799 344.2C263.801 355.053 261.834 368.05 269.958 375.493C275.785 380.83 284.395 381.126 292.436 375.945L292.593 375.84L292.534 375.829C291.977 375.681 291.531 375.232 291.404 374.647L291.379 374.498C291.277 373.638 291.891 372.859 292.751 372.757C294.717 372.524 296.423 372.049 297.87 371.37L298.067 371.274L298.307 371.026C299.251 370.032 300.172 368.952 301.065 367.783L301.361 367.39C301.696 366.942 302.226 366.723 302.745 366.765L302.786 366.77L302.807 366.731C304.684 363.02 304.239 357.992 301.491 352.64L301.327 352.325C295.956 342.177 285.919 337.905 277.799 344.2ZM371.008 231.725C370.203 234.587 367.751 238.514 363.994 243.164C357.443 251.271 347.602 260.708 339 267.16L340.908 265.062V265.062C340.889 265.045 340.873 265.023 340.859 264.997L340.201 263.788C335.896 255.93 331.101 248.18 323.351 241.862C303.289 250.133 280.287 261.44 259.33 273.262L252.461 277.145C201.876 305.799 175.262 322.955 146.802 344.044C147.876 348.881 149.23 353.602 150.851 358.176C151.105 358.894 147.782 361.58 147.173 361.249C141.496 365.053 132.605 367.816 127.544 367.959C122.611 368.099 119.761 366.102 121.229 362.121C122.458 358.79 127.084 354.04 135.41 347.673L136.359 346.953L138.278 345.511C169.613 322.052 200.634 303.014 257.893 270.714L260.289 269.369C299.561 247.448 345.039 227.698 365.869 225.876C370.15 225.501 372.093 227.871 371.008 231.725ZM142.992 346.882L136.426 351.836C130.57 356.277 126.347 359.561 124.066 361.668L123.899 361.824C121.115 364.436 124.266 365.126 127.461 365.035C132.3 364.898 139.714 361.228 145.989 357.888C144.829 354.295 143.829 350.622 142.992 346.882ZM245.685 331C246.468 331.199 246.942 331.995 246.743 332.778C246.544 333.56 245.748 334.034 244.965 333.835C241.032 332.837 238.708 333.22 237.955 334.279C237.455 334.982 237.732 336.18 238.667 336.945C239.398 337.543 240.371 337.829 241.04 337.683C241.622 337.556 241.948 337.107 241.948 335.984C241.948 335.176 242.603 334.521 243.411 334.521C244.219 334.521 244.874 335.176 244.874 335.984C244.874 338.427 243.652 340.108 241.662 340.541C240.063 340.889 238.199 340.342 236.814 339.209C234.77 337.537 234.102 334.648 235.571 332.583C237.182 330.32 240.712 329.737 245.685 331ZM181.433 325.63C183.689 326.306 184.661 328.038 184.967 330.637L184.998 330.918L185.035 331.346C185.04 331.417 185.045 331.49 185.05 331.569L185.127 333.053L185.15 333.388C185.162 333.535 185.175 333.655 185.19 333.762L185.229 333.986L185.252 334.084L185.293 334.12C185.745 334.562 185.865 335.255 185.573 335.828L185.498 335.957C185.06 336.636 184.155 336.832 183.476 336.394C182.542 335.791 182.329 335.171 182.216 333.392L182.123 331.651C182.113 331.493 182.101 331.357 182.086 331.203C181.92 329.499 181.504 328.705 180.594 328.432C178.039 327.667 176.573 328.449 176.108 330.156C175.695 331.678 176.293 333.277 177.341 333.722L177.607 333.82C178.292 334.113 178.655 334.884 178.424 335.609C178.179 336.379 177.356 336.804 176.586 336.558C173.801 335.67 172.477 332.361 173.285 329.389C174.187 326.071 177.324 324.399 181.433 325.63ZM286.962 303.233C291.012 308.927 290.259 316.173 283.761 319.452C283.039 319.815 282.16 319.526 281.796 318.805C281.432 318.083 281.722 317.204 282.443 316.84C287.148 314.466 287.685 309.297 284.578 304.929C281.559 300.685 277.358 300.218 274.47 304.804C271.409 309.665 271.631 312.519 273.835 313.804C275.585 314.824 278.402 314.61 279.177 313.776L279.252 313.684C279.72 313.026 280.634 312.872 281.292 313.341C281.95 313.809 282.104 314.722 281.635 315.38C280.009 317.665 275.369 318.084 272.362 316.331C268.512 314.086 268.144 309.36 271.995 303.245C276.118 296.696 282.844 297.443 286.962 303.233ZM226.318 294.846C227.078 294.846 227.703 295.426 227.774 296.168L227.781 296.308C227.781 296.566 228.02 296.854 228.878 297.483L229.691 298.066C230.576 298.712 231.003 299.112 231.406 299.75C232.329 301.208 232.851 302.693 232.851 304.439C232.851 308.909 226.136 314.989 218.806 317.695C210.018 320.938 202.819 318.533 200.86 309.516C200.688 308.727 201.189 307.948 201.978 307.776C202.768 307.605 203.547 308.105 203.718 308.895C205.239 315.893 210.488 317.646 217.793 314.95C224.1 312.622 229.926 307.348 229.926 304.439C229.926 303.314 229.584 302.341 228.934 301.314L228.846 301.19C228.697 301.002 228.464 300.799 228.045 300.488L227.08 299.792C225.476 298.61 224.855 297.812 224.855 296.308C224.855 295.501 225.51 294.846 226.318 294.846ZM233.184 213.774L232.26 213.877C182.348 219.88 144.904 259.801 142.862 313.372L148.218 309.604C163.589 298.814 181.432 286.489 201.745 272.629L205.703 270.237C217.52 263.107 228.818 256.398 239.604 250.104C239.407 249.759 239.352 249.335 239.485 248.928C240.239 246.626 240.936 245.079 242.213 243.53C246.21 238.682 251.685 236.314 255.564 239.358C255.946 239.658 256.139 240.11 256.123 240.56L259.569 238.594C270.42 232.417 280.687 226.712 290.378 221.472L286.593 220.395C280.98 218.815 273.997 216.941 267.041 215.499C267.104 220.128 263.64 223.824 257.883 226.366C252.99 228.527 246.613 229.69 242.079 229.42C233.597 228.914 228.823 221.474 233.184 213.774ZM320.739 277.295C324.319 287.075 321.365 295.967 312.428 295.909C299.694 295.826 287.259 284.707 289.269 274.747C290.166 270.303 293.506 266.372 299.315 264.411C308.592 261.278 317.096 267.341 320.739 277.295ZM300.251 267.182C295.451 268.803 292.831 271.886 292.137 275.325C290.541 283.231 301.368 292.912 312.447 292.984C318.794 293.025 320.976 286.453 317.992 278.301C314.835 269.674 307.776 264.641 300.251 267.182ZM192.696 232.555L192.801 232.706L193.505 233.826C193.849 234.394 194.158 234.952 194.452 235.553C197.692 242.176 197.608 250.859 192.126 262.912C189.642 268.372 183.315 275.711 177.79 280.09C170.735 285.681 165.468 286.951 159.181 286.261L157.315 286.041L157.088 286.021C156.963 286.012 156.883 286.011 156.796 286.014L156.668 286.019C156.57 286.024 156.537 286.019 156.531 286.006L156.531 285.996L156.484 286.072C156.06 286.68 155.235 286.88 154.574 286.512C153.868 286.119 153.614 285.229 154.006 284.523C154.532 283.578 155.411 283.15 156.529 283.097C156.825 283.083 157.139 283.093 157.512 283.124L157.948 283.167L159.154 283.313C164.881 284.007 169.438 282.977 175.973 277.797C181.163 273.684 187.195 266.688 189.463 261.701C194.593 250.422 194.668 242.653 191.824 236.838C191.635 236.451 191.438 236.083 191.223 235.714L190.917 235.202L190.304 234.232C189.875 233.548 190.082 232.645 190.766 232.216C191.408 231.814 192.241 231.97 192.696 232.555ZM366.124 228.79C356.773 229.608 342.115 234.227 325.216 241.098L325.71 241.535C330.413 245.754 339.901 255.76 342.871 262.897L345.83 259.616C353.129 251.497 358.426 245.4 361.718 241.326L362.385 240.49C365.532 236.496 367.566 233.159 368.192 230.932L368.281 230.594C368.672 228.987 368.22 228.607 366.124 228.79ZM226.068 233.542C229.708 235.302 231.185 239.22 228.79 242.772C228.339 243.442 227.43 243.619 226.76 243.168C226.09 242.716 225.913 241.807 226.365 241.137C227.682 239.183 226.939 237.212 224.794 236.175C222.536 235.083 220.061 235.711 218.784 238.095C217.607 240.292 217.526 243.266 218.466 245.213C219.29 246.923 220.491 247.251 222.323 245.872C222.968 245.386 223.885 245.515 224.371 246.161C224.857 246.806 224.728 247.723 224.082 248.209C220.744 250.722 217.44 249.82 215.831 246.485C214.482 243.688 214.589 239.729 216.205 236.714C218.266 232.867 222.467 231.801 226.068 233.542ZM244.471 245.391C243.789 246.218 243.301 247.091 242.85 248.212C246.619 246.022 250.324 243.883 253.966 241.794L253.86 241.732V241.732L253.758 241.659C251.525 239.907 247.588 241.609 244.471 245.391ZM238.233 213.326L236.954 213.416L236.868 213.524C231.812 219.914 233.759 225.101 240.664 225.837C245.624 226.366 258.789 222.687 260.333 221.395C261.837 220.138 263.74 217.245 264.033 214.902C259.565 214.062 255.194 213.444 251.295 213.245C247.311 213.041 243.382 213.046 239.518 213.25L238.233 213.326Z" fill="#23214C"/>
<path d="M370.295 190.683C401.274 179.3 400.564 182.677 371.304 193.429C336.664 206.159 205.907 285.919 205.907 285.919C146.555 321.848 142.115 316.302 199.643 281.34L203.189 279.189C203.857 278.785 269.353 237.448 316.154 215.333C321.42 212.844 366.768 191.979 370.295 190.683Z" fill="white"/>
<path fill-rule="evenodd" clip-rule="evenodd" d="M423.785 134.01C414.185 133.519 406.693 140.979 406.615 150.739C406.55 158.917 411.241 165.86 417.963 167.246C419.734 167.611 424.842 167.611 429.273 165.125L429.639 164.923C435.226 161.76 439.026 155.742 439.534 150.791C440.435 142.014 433.384 134.501 423.785 134.01ZM408.704 150.756C408.705 150.693 408.706 150.63 408.707 150.567C408.767 150.548 408.826 150.523 408.883 150.492C416.409 146.438 421.055 143.348 422.91 141.117C424.135 139.645 424.732 137.983 424.684 136.178C425.947 136.318 427.152 136.595 428.281 136.992C428.275 137.046 428.272 137.102 428.274 137.158C428.366 139.756 427.673 141.832 426.201 143.449C424.509 145.308 422.459 147.076 420.129 148.743C417.638 150.526 414.962 152.1 412.287 153.448C411.663 153.763 411.069 154.049 410.511 154.308L409.704 154.674C409.588 154.725 409.481 154.772 409.382 154.815L409.142 154.916C408.846 153.599 408.693 152.203 408.704 150.756ZM409.729 156.936C410.391 158.771 411.349 160.397 412.535 161.722L413.16 161.362C422.981 155.676 429.078 151.209 431.386 148.058C433.719 144.872 434.551 142.426 434.029 140.762C434.017 140.723 434.007 140.684 433.999 140.644C432.971 139.565 431.748 138.638 430.368 137.905C430.31 140.667 429.437 142.999 427.746 144.856C425.947 146.832 423.788 148.695 421.345 150.443C418.758 152.294 415.992 153.921 413.227 155.314C412.42 155.721 411.661 156.083 410.962 156.4L410.148 156.761L409.729 156.936ZM417.551 164.989C416.317 164.62 415.167 164.015 414.133 163.213C424.243 157.366 430.534 152.758 433.072 149.293C434.646 147.143 435.652 145.21 436.061 143.485C436.57 144.435 436.955 145.448 437.202 146.505C437.149 146.613 437.114 146.732 437.101 146.858C436.846 149.301 435.587 151.725 433.285 154.14C431.076 156.457 426.308 159.8 419.022 164.123L417.551 164.989ZM421.083 165.327C423.325 165.185 426.069 164.527 428.285 163.284C432.408 161.073 435.718 156.91 436.968 152.898C436.363 153.804 435.64 154.698 434.797 155.582C432.529 157.961 427.969 161.196 421.083 165.327ZM409.312 147.88L408.94 148.082C410.126 141.178 415.642 136.224 422.589 136.08C422.662 137.437 422.241 138.654 421.303 139.782C419.788 141.604 415.767 144.332 409.312 147.88Z" fill="#23214C"/>
<path fill-rule="evenodd" clip-rule="evenodd" d="M499.212 113.99C499.407 114.012 499.543 114.188 499.521 114.382C499.52 114.667 499.336 114.821 499.089 114.921C498.867 115.011 498.512 114.976 498.305 115.004C496.042 115.179 494.264 113.514 493.482 111.368C492.73 109.307 492.93 106.842 494.295 105.322C494.452 105.143 494.724 105.125 494.903 105.282C495.082 105.439 496.1 105.712 495.943 105.891C494.818 107.204 494.057 108.001 495.118 111.118C496.179 114.235 499.067 113.973 499.212 113.99Z" fill="white"/>
<path fill-rule="evenodd" clip-rule="evenodd" d="M138.956 136.306C138.361 135.898 137.548 136.049 137.14 136.644C136.732 137.238 136.883 138.051 137.477 138.459C138.131 138.908 138.708 139.322 139.217 139.707C138.669 140.143 138.121 140.644 137.551 141.213L136.396 142.386C135.888 142.898 135.892 143.725 136.404 144.233C136.916 144.741 137.743 144.737 138.251 144.225L139.637 142.824C140.201 142.275 140.729 141.816 141.261 141.434C142.442 142.604 142.801 143.463 142.821 144.316L142.821 144.535L142.827 144.669C142.894 145.327 143.45 145.841 144.127 145.841C144.848 145.841 145.433 145.256 145.433 144.535L145.432 144.278C145.408 142.948 144.939 141.683 143.675 140.237C144.509 139.988 145.45 139.849 146.591 139.789C147.311 139.751 147.865 139.137 147.827 138.417C147.79 137.696 147.175 137.143 146.455 137.181C144.474 137.284 142.935 137.614 141.564 138.241C140.991 137.773 140.342 137.282 139.61 136.762L138.956 136.306Z" fill="#23214C"/>
<path fill-rule="evenodd" clip-rule="evenodd" d="M334.643 422.475L335.549 422.48C340.613 422.527 344.569 422.983 352.021 424.179C352.876 424.316 353.457 425.12 353.32 425.975C353.183 426.83 352.379 427.411 351.524 427.274L349.082 426.89C342.916 425.943 339.363 425.61 334.643 425.61C318.265 425.61 307.809 435.862 309.579 451.587C309.675 452.447 309.057 453.222 308.197 453.319C307.337 453.416 306.561 452.797 306.464 451.937C304.474 434.252 316.484 422.475 334.643 422.475ZM347.327 428.803L347.174 428.669C347.027 428.542 346.8 428.56 346.675 428.708C346.546 428.857 346.566 429.08 346.713 429.207L346.871 429.341C347.019 429.468 347.241 429.451 347.37 429.302C347.494 429.154 347.48 428.93 347.327 428.803ZM318.928 432.081C318.366 431.629 317.544 431.719 317.092 432.281C315.268 434.551 313.938 436.763 313.109 438.922C312.302 441.022 312.027 444.551 312.236 449.596L312.287 450.662C312.325 451.382 312.939 451.935 313.659 451.898C314.38 451.86 314.933 451.245 314.895 450.525C314.618 445.254 314.854 441.663 315.547 439.859C316.273 437.97 317.464 435.987 319.128 433.917C319.58 433.355 319.49 432.533 318.928 432.081ZM333.181 427.76C333.821 427.428 334.61 427.679 334.941 428.319C335.273 428.959 335.023 429.748 334.382 430.079C331.73 431.453 329.704 433.757 328.292 437.041C326.777 440.566 325.537 443.711 324.573 446.475C324.335 447.156 323.59 447.515 322.909 447.278C322.228 447.04 321.869 446.296 322.106 445.615C323.092 442.788 324.354 439.587 325.893 436.01C327.534 432.192 329.968 429.425 333.181 427.76ZM340.774 427.691C340.298 427.149 339.473 427.094 338.931 427.57C336.751 429.48 335.076 431.217 333.904 432.792C332.74 434.356 331.377 436.695 329.8 439.825C329.475 440.469 329.734 441.254 330.378 441.579C331.022 441.903 331.807 441.644 332.132 441C333.647 437.994 334.942 435.772 335.999 434.351C337.048 432.942 338.6 431.332 340.652 429.534C341.194 429.059 341.249 428.234 340.774 427.691ZM336.005 442.44C335.463 442.915 334.638 442.861 334.162 442.318C333.687 441.776 333.742 440.951 334.284 440.475C336.336 438.678 337.888 437.068 338.937 435.658C339.994 434.237 341.288 432.016 342.804 429.009C343.129 428.365 343.914 428.106 344.558 428.431C345.202 428.756 345.461 429.541 345.136 430.185C343.559 433.314 342.196 435.653 341.032 437.218C339.86 438.793 338.185 440.53 336.005 442.44ZM326.117 428.825C325.524 428.415 324.711 428.564 324.301 429.157C321.381 433.386 319.517 436.545 318.692 438.691C317.865 440.844 317.293 443.748 316.962 447.417C316.897 448.135 317.426 448.77 318.145 448.835C318.863 448.9 319.498 448.37 319.563 447.652C319.875 444.203 320.403 441.523 321.131 439.627C321.809 437.861 323.391 435.136 325.864 431.498L326.45 430.642C326.86 430.048 326.711 429.235 326.117 428.825Z" fill="#23214C"/>
<path fill-rule="evenodd" clip-rule="evenodd" d="M301.325 421.123L302.225 423.123L304.277 423.712C304.388 423.744 304.452 423.86 304.42 423.97C304.41 424.005 304.392 424.036 304.367 424.061L302.808 425.613L302.895 427.846C302.9 427.961 302.81 428.058 302.695 428.063C302.656 428.064 302.617 428.055 302.583 428.035L300.818 427.03C300.763 426.999 300.697 426.994 300.638 427.018L298.751 427.767C298.643 427.81 298.522 427.758 298.479 427.65C298.465 427.614 298.461 427.574 298.468 427.536L298.865 425.337L297.537 423.583C297.468 423.491 297.486 423.36 297.578 423.291C297.606 423.269 297.64 423.255 297.675 423.25L299.788 422.953L300.958 421.098C301.02 421 301.149 420.971 301.246 421.032C301.281 421.054 301.308 421.086 301.325 421.123Z" fill="#23214C"/>
<path fill-rule="evenodd" clip-rule="evenodd" d="M373.996 141.137C374.476 141.564 375.076 142.332 375.606 143.164L376.287 142.861L377.093 142.516C377.256 142.442 377.36 142.384 377.392 142.337C377.485 142.164 377.699 142.098 377.874 142.19C378.044 142.282 378.113 142.496 378.02 142.669C377.956 142.833 377.504 143.347 376.663 143.851C376.511 143.942 376.342 144.027 376.162 144.109C376.471 144.689 376.715 145.25 376.829 145.699C377.002 146.361 376.864 146.831 376.637 146.996C376.414 147.159 375.855 147.189 375.004 146.483C374.847 146.363 374.823 146.141 374.941 145.986C375.06 145.831 375.282 145.803 375.439 145.922C375.601 146.042 375.764 146.109 375.896 146.158L375.832 145.905C375.807 145.814 375.776 145.719 375.732 145.627C375.58 145.294 375.386 144.913 375.168 144.521C374.502 144.773 373.745 145.001 372.927 145.111C372.528 145.164 372.122 145.175 371.7 145.171C371.457 145.187 371.247 145.003 371.23 144.76C371.214 144.517 371.399 144.307 371.641 144.291C372.626 144.196 373.536 143.947 374.339 143.668L374.602 143.573C374.167 142.894 373.702 142.277 373.303 141.928C373.087 141.737 373.065 141.404 373.254 141.186C373.448 140.967 373.78 140.946 373.996 141.137Z" fill="#23214C"/>
<path fill-rule="evenodd" clip-rule="evenodd" d="M86.4401 317.942C85.0742 318.031 82.9081 318.38 81.1375 319.082C79.6229 319.683 79.6229 336.034 84.8009 337.337C89.9491 339.054 95.5782 336.781 94.9061 328.031C94.894 327.848 94.7458 327.351 94.576 326.78C94.3273 325.945 94.0321 324.953 94.0499 324.566C94.1198 323.192 93.7588 322.033 92.806 321.306C91.7795 319.13 89.7679 317.727 86.4401 317.942ZM85.6988 333.357C83.1646 331.463 83.2536 322.626 86.1458 322.036C87.9457 323.42 89.5886 325.417 90.1429 329.266C89.5227 331.386 88.2134 332.613 87.0687 333.685C86.9462 333.8 86.8256 333.913 86.708 334.025C86.3811 333.839 86.0445 333.612 85.6988 333.357Z" fill="white"/>
<path fill-rule="evenodd" clip-rule="evenodd" d="M219.783 473.115C219.188 472.706 218.375 472.858 217.967 473.452C217.559 474.047 217.71 474.86 218.305 475.268C218.958 475.716 219.535 476.131 220.044 476.515C219.496 476.952 218.948 477.452 218.378 478.021L217.223 479.195C216.715 479.707 216.719 480.534 217.231 481.041C217.744 481.549 218.57 481.546 219.078 481.033L220.464 479.633C221.028 479.083 221.556 478.624 222.088 478.242C223.269 479.413 223.628 480.271 223.648 481.125L223.648 481.344L223.655 481.477C223.721 482.136 224.278 482.65 224.954 482.65C225.675 482.65 226.26 482.065 226.26 481.344L226.26 481.087C226.235 479.756 225.766 478.491 224.502 477.045C225.337 476.796 226.277 476.657 227.418 476.597C228.139 476.56 228.692 475.945 228.654 475.225C228.617 474.505 228.002 473.951 227.282 473.989C225.301 474.093 223.762 474.423 222.391 475.05C221.818 474.582 221.17 474.091 220.437 473.571L219.783 473.115Z" fill="#23214C"/>
<path fill-rule="evenodd" clip-rule="evenodd" d="M219.783 473.115C219.188 472.706 218.375 472.858 217.967 473.452C217.559 474.047 217.71 474.86 218.305 475.268C218.958 475.716 219.535 476.131 220.044 476.515C219.496 476.952 218.948 477.452 218.378 478.021L217.223 479.195C216.715 479.707 216.719 480.534 217.231 481.041C217.744 481.549 218.57 481.546 219.078 481.033L220.464 479.633C221.028 479.083 221.556 478.624 222.088 478.242C223.269 479.413 223.628 480.271 223.648 481.125L223.648 481.344L223.655 481.477C223.721 482.136 224.278 482.65 224.954 482.65C225.675 482.65 226.26 482.065 226.26 481.344L226.26 481.087C226.235 479.756 225.766 478.491 224.502 477.045C225.337 476.796 226.277 476.657 227.418 476.597C228.139 476.56 228.692 475.945 228.654 475.225C228.617 474.505 228.002 473.951 227.282 473.989C225.301 474.093 223.762 474.423 222.391 475.05C221.818 474.582 221.17 474.091 220.437 473.571L219.783 473.115Z" fill="#23214C"/>
<path fill-rule="evenodd" clip-rule="evenodd" d="M264.417 437.336L265.317 439.336L267.369 439.925C267.479 439.957 267.544 440.073 267.512 440.183C267.502 440.218 267.484 440.249 267.458 440.274L265.9 441.826L265.987 444.059C265.991 444.174 265.902 444.271 265.786 444.276C265.747 444.277 265.709 444.268 265.675 444.248L263.91 443.243C263.855 443.212 263.789 443.207 263.73 443.231L261.842 443.98C261.735 444.023 261.614 443.971 261.571 443.863C261.557 443.827 261.553 443.787 261.56 443.749L261.957 441.55L260.629 439.796C260.56 439.704 260.578 439.573 260.67 439.504C260.698 439.482 260.732 439.468 260.767 439.463L262.88 439.166L264.05 437.311C264.111 437.213 264.24 437.184 264.338 437.245C264.373 437.267 264.4 437.299 264.417 437.336Z" fill="#23214C"/>
<path fill-rule="evenodd" clip-rule="evenodd" d="M151.197 423.595L152.727 425.166L154.856 425.018C154.971 425.01 155.071 425.097 155.079 425.212C155.081 425.247 155.075 425.283 155.06 425.315L154.126 427.306L154.971 429.375C155.015 429.481 154.964 429.603 154.857 429.647C154.821 429.662 154.781 429.666 154.743 429.66L152.741 429.319C152.678 429.308 152.614 429.327 152.567 429.369L151.05 430.719C150.964 430.795 150.832 430.788 150.755 430.701C150.729 430.672 150.712 430.636 150.705 430.598L150.326 428.396L148.479 427.202C148.382 427.139 148.354 427.01 148.417 426.913C148.436 426.883 148.463 426.859 148.494 426.842L150.379 425.839L150.843 423.696C150.867 423.583 150.979 423.512 151.092 423.536C151.132 423.545 151.168 423.565 151.197 423.595Z" fill="#23214C"/>
<path fill-rule="evenodd" clip-rule="evenodd" d="M127.311 280.379L128.211 282.379L130.262 282.968C130.373 283 130.437 283.115 130.405 283.226C130.395 283.26 130.377 283.292 130.352 283.317L128.793 284.868L128.881 287.101C128.885 287.217 128.795 287.314 128.68 287.318C128.641 287.32 128.602 287.311 128.568 287.291L126.804 286.286C126.749 286.255 126.682 286.25 126.623 286.274L124.736 287.023C124.629 287.066 124.507 287.013 124.465 286.906C124.45 286.87 124.446 286.83 124.453 286.792L124.85 284.593L123.523 282.839C123.453 282.747 123.471 282.616 123.563 282.546C123.592 282.525 123.625 282.511 123.66 282.506L125.774 282.209L126.943 280.353C127.005 280.256 127.134 280.227 127.232 280.288C127.266 280.31 127.294 280.342 127.311 280.379Z" fill="#23214C"/>
<path fill-rule="evenodd" clip-rule="evenodd" d="M127.102 282.371L127.484 283.22L128.355 283.471C128.402 283.484 128.43 283.533 128.416 283.58C128.412 283.595 128.404 283.608 128.393 283.619L127.731 284.278L127.768 285.226C127.77 285.275 127.732 285.317 127.683 285.319C127.667 285.319 127.65 285.315 127.636 285.307L126.886 284.88C126.863 284.867 126.835 284.865 126.81 284.875L126.008 285.193C125.962 285.211 125.911 285.189 125.893 285.143C125.887 285.128 125.885 285.111 125.888 285.095L126.057 284.161L125.493 283.416C125.463 283.377 125.471 283.321 125.51 283.292C125.522 283.282 125.536 283.277 125.551 283.274L126.449 283.148L126.946 282.36C126.972 282.319 127.026 282.306 127.068 282.332C127.083 282.342 127.094 282.355 127.102 282.371Z" fill="white"/>
<path fill-rule="evenodd" clip-rule="evenodd" d="M20.3253 368.123L21.2252 370.123L23.2767 370.712C23.3877 370.744 23.4518 370.86 23.4199 370.97C23.4101 371.005 23.3917 371.036 23.3665 371.061L21.8078 372.613L21.8952 374.846C21.8997 374.961 21.8098 375.058 21.6945 375.063C21.6555 375.064 21.6169 375.055 21.583 375.035L19.8184 374.03C19.7632 373.999 19.6968 373.994 19.6378 374.018L17.7506 374.767C17.6433 374.81 17.5218 374.758 17.4792 374.65C17.4648 374.614 17.4609 374.574 17.4678 374.536L17.865 372.337L16.5375 370.583C16.4678 370.491 16.4859 370.36 16.578 370.291C16.6063 370.269 16.6397 370.255 16.675 370.25L18.7884 369.953L19.958 368.098C20.0195 368 20.1485 367.971 20.2462 368.032C20.2809 368.054 20.3084 368.086 20.3253 368.123Z" fill="#23214C"/>
<path fill-rule="evenodd" clip-rule="evenodd" d="M110.746 188.545L111.4 189.001C112.134 189.522 114.872 192.103 115.445 192.571C116.815 191.943 118.354 191.612 120.335 191.509C121.055 191.471 121.67 192.025 121.707 192.745C121.745 193.465 121.191 194.08 120.471 194.117C119.33 194.177 118.389 194.316 117.554 194.565C118.819 196.012 119.288 197.277 119.312 198.607L119.313 198.864C119.313 199.585 118.728 200.17 118.007 200.17C117.33 200.17 116.774 199.656 116.707 198.997L116.701 198.864L116.701 198.645C116.681 197.791 116.322 196.933 115.141 195.763C114.609 196.144 114.081 196.603 113.517 197.153L112.131 198.553C111.623 199.066 110.796 199.069 110.284 198.561C109.772 198.054 109.768 197.227 110.276 196.715L111.431 195.541C112 194.972 112.548 194.472 113.097 194.035C112.134 191.836 108.522 189.477 108.93 188.883C109.339 188.288 110.152 188.137 110.746 188.545Z" fill="#23214C"/>
<path fill-rule="evenodd" clip-rule="evenodd" d="M362.722 339.161L364.501 340.443L366.572 339.928C366.684 339.9 366.798 339.968 366.826 340.08C366.834 340.114 366.834 340.15 366.825 340.185L366.251 342.308L367.443 344.198C367.504 344.296 367.475 344.425 367.377 344.486C367.344 344.507 367.306 344.518 367.267 344.519L365.237 344.531C365.173 344.531 365.113 344.56 365.074 344.61L363.814 346.203C363.743 346.293 363.611 346.309 363.521 346.237C363.49 346.213 363.467 346.18 363.454 346.144L362.698 344.041L360.672 343.186C360.565 343.141 360.516 343.018 360.56 342.912C360.574 342.879 360.596 342.851 360.624 342.829L362.306 341.514L362.391 339.323C362.396 339.207 362.493 339.118 362.608 339.122C362.649 339.124 362.689 339.137 362.722 339.161Z" fill="#23214C"/>
<path fill-rule="evenodd" clip-rule="evenodd" d="M383.161 257.311L383.7 259.437L385.618 260.373C385.722 260.424 385.765 260.549 385.714 260.652C385.699 260.684 385.675 260.712 385.646 260.732L383.841 261.99L383.54 264.204C383.524 264.318 383.419 264.398 383.304 264.383C383.266 264.377 383.229 264.361 383.199 264.337L381.636 263.04C381.587 263 381.523 262.984 381.46 262.997L379.472 263.407C379.359 263.43 379.248 263.358 379.225 263.245C379.217 263.207 379.22 263.167 379.233 263.13L380.006 261.033L379.004 259.076C378.951 258.973 378.991 258.847 379.094 258.795C379.126 258.779 379.161 258.771 379.197 258.772L381.33 258.846L382.804 257.222C382.881 257.137 383.013 257.13 383.099 257.208C383.129 257.235 383.151 257.271 383.161 257.311Z" fill="#23214C"/>
<path fill-rule="evenodd" clip-rule="evenodd" d="M336.616 171.757L337.155 173.883L339.073 174.819C339.177 174.869 339.22 174.994 339.169 175.098C339.154 175.13 339.13 175.158 339.101 175.178L337.296 176.435L336.995 178.65C336.979 178.764 336.874 178.844 336.759 178.829C336.721 178.823 336.684 178.807 336.654 178.782L335.091 177.486C335.042 177.446 334.978 177.43 334.915 177.442L332.927 177.853C332.814 177.876 332.703 177.804 332.68 177.691C332.672 177.652 332.675 177.613 332.688 177.576L333.461 175.479L332.459 173.522C332.406 173.419 332.447 173.293 332.549 173.241C332.581 173.224 332.616 173.216 332.652 173.218L334.785 173.292L336.259 171.668C336.336 171.582 336.468 171.576 336.554 171.653C336.584 171.681 336.606 171.717 336.616 171.757Z" fill="#23214C"/>
<path fill-rule="evenodd" clip-rule="evenodd" d="M474.122 192.586L474.916 192.515C475.812 192.442 476.625 192.401 477.365 192.392C478.01 191.03 478.977 189.788 480.428 188.435C480.956 187.943 481.782 187.972 482.274 188.5C482.766 189.028 482.737 189.854 482.209 190.346C481.373 191.125 480.742 191.837 480.262 192.564C482.161 192.859 483.334 193.527 484.207 194.53L484.373 194.726C484.836 195.279 484.764 196.103 484.212 196.566C483.694 197.001 482.937 196.965 482.463 196.503L482.372 196.405L482.231 196.238C481.668 195.596 480.841 195.17 479.184 195.032C479.022 195.666 478.912 196.358 478.833 197.141L478.672 199.105C478.612 199.824 477.981 200.358 477.262 200.298C476.543 200.239 476.009 199.607 476.069 198.889L476.2 197.248C476.27 196.445 476.368 195.71 476.508 195.023C475.871 195.055 475.162 195.109 474.373 195.186C473.655 195.255 473.017 194.729 472.948 194.011C472.878 193.294 473.404 192.655 474.122 192.586Z" fill="#23214C"/>
<path fill-rule="evenodd" clip-rule="evenodd" d="M368.664 282.737C368.428 283.334 367.91 284.161 367.31 284.943L367.828 285.48L368.428 286.119L368.561 286.247C368.619 286.299 368.665 286.33 368.698 286.339C368.892 286.367 369.027 286.546 369.001 286.741C368.973 286.932 368.795 287.07 368.601 287.042C368.425 287.038 367.787 286.789 367.026 286.171C366.888 286.059 366.751 285.93 366.612 285.789C366.173 286.278 365.73 286.699 365.347 286.96C364.783 287.349 364.295 287.38 364.062 287.222C363.833 287.069 363.613 286.554 363.986 285.513C364.044 285.324 364.245 285.225 364.431 285.284C364.617 285.343 364.719 285.541 364.661 285.729C364.604 285.922 364.596 286.099 364.596 286.24L364.812 286.093C364.888 286.038 364.967 285.977 365.039 285.904C365.3 285.647 365.592 285.334 365.885 284.996C365.421 284.456 364.947 283.823 364.565 283.092C364.378 282.735 364.229 282.357 364.088 281.959C363.99 281.737 364.091 281.476 364.314 281.377C364.537 281.279 364.798 281.381 364.895 281.603C365.321 282.496 365.866 283.266 366.403 283.925L366.582 284.14C367.072 283.499 367.493 282.851 367.683 282.357C367.789 282.088 368.094 281.954 368.364 282.057C368.636 282.164 368.77 282.468 368.664 282.737Z" fill="white"/>
<path fill-rule="evenodd" clip-rule="evenodd" d="M355.913 16.5761C356.708 16.4375 357.466 16.9703 357.605 17.7661C357.743 18.562 357.21 19.3195 356.415 19.4581C352.629 20.1174 348.074 22.3799 344.139 26.024C339.028 30.7559 335.259 37.4344 333.398 46.1521C331.898 53.1757 333.276 62.4232 337.195 70.1383C341.654 78.9159 348.822 84.8838 358.019 86.5637C367.46 88.2882 375.448 87.2172 384.37 84.0455L385.191 83.7472C385.452 83.6485 385.917 83.4691 386.5 83.2439L386.502 83.2434C388.65 82.4145 392.404 80.9661 393.482 80.6402C396.366 79.7679 398.334 79.8409 399.761 81.3613C400.313 81.9503 400.284 82.876 399.695 83.4288C399.143 83.947 398.295 83.9536 397.735 83.467L397.627 83.3631C397.206 82.9146 396.336 82.8626 394.585 83.3648L394.329 83.4403C393.379 83.7277 389.902 85.0682 387.734 85.904L387.734 85.9041L387.734 85.9042L387.733 85.9044C386.894 86.2282 386.251 86.4761 386.027 86.5577C376.391 90.0752 367.744 91.3138 357.493 89.4414C347.335 87.586 339.436 81.0098 334.587 71.4632C330.373 63.1665 328.893 53.2392 330.537 45.5414C332.523 36.2372 336.596 29.0213 342.151 23.8775C346.499 19.851 351.57 17.3325 355.913 16.5761ZM365.805 23.6424C366.598 23.4872 367.366 24.004 367.521 24.7968C367.677 25.5895 367.16 26.358 366.367 26.5133C354.512 28.835 344.978 37.8899 342.213 49.8669C341.277 53.9204 341.56 57.2163 342.479 58.4738L342.601 58.6314L342.61 58.6534L342.627 58.6401C342.956 58.3434 343.341 57.5853 343.639 56.41L343.701 56.1518C346.545 43.8337 355.936 34.2987 367.932 31.0965C368.712 30.8882 369.514 31.352 369.722 32.1325C369.931 32.913 369.467 33.7146 368.686 33.9229C357.879 36.8079 349.388 45.3163 346.663 56.3425L346.552 56.8098C345.549 61.1543 342.669 63.2282 340.336 60.4781C338.63 58.4667 338.211 54.1986 339.363 49.2089C342.39 36.0973 352.827 26.184 365.805 23.6424ZM383.397 39.6971C383.339 38.8913 382.639 38.2847 381.834 38.3422C367.598 39.3579 355.113 48.6043 350.145 62.2516C348.261 67.4301 348.148 72.0354 349.692 74.3839C351.762 77.5342 355.018 75.7472 356.641 71.2867L356.811 70.829C361.204 59.2794 371.498 51.2129 383.548 49.5308C384.348 49.4191 384.906 48.68 384.795 47.8799C384.683 47.0799 383.944 46.5218 383.144 46.6335C369.873 48.486 358.559 57.4648 353.892 70.2862L353.789 70.5601C353.27 71.8946 352.702 72.6991 352.272 72.9353L352.252 72.9481C352.249 72.9507 352.247 72.9529 352.245 72.9548C352.241 72.9579 352.239 72.9597 352.238 72.9594C352.236 72.9591 352.234 72.955 352.23 72.9453C352.221 72.9237 352.2 72.8744 352.136 72.7775L352.059 72.6502C351.21 71.1451 351.34 67.5242 352.894 63.2521C357.463 50.699 368.947 42.1944 382.042 41.2602C382.848 41.2027 383.454 40.5029 383.397 39.6971ZM389.767 53.9165C390.573 53.859 391.273 54.4656 391.33 55.2714C391.388 56.0771 390.781 56.7769 389.975 56.8344C380.794 57.4895 372.743 63.4521 369.539 72.2534C368.59 74.8624 368.413 77.093 368.753 78.2227L368.795 78.3488L368.86 78.2555C369.023 78.0078 369.207 77.652 369.387 77.1906L369.464 76.9864C372.848 67.6899 381.052 61.1793 390.674 59.8361C391.474 59.7245 392.213 60.2825 392.325 61.0826C392.437 61.8826 391.878 62.6217 391.078 62.7334C382.661 63.9084 375.466 69.5262 372.367 77.5756L372.213 77.9869C370.958 81.4344 368.245 82.9237 366.51 80.2839C365.322 78.475 365.405 75.0601 366.79 71.2529C370.392 61.3574 379.445 54.6529 389.767 53.9165ZM397.476 65.7015C397.419 64.8957 396.719 64.2891 395.913 64.3466C389 64.8398 382.937 69.33 380.525 75.957C379.574 78.5697 379.517 80.9475 380.396 82.2864C381.839 84.4815 384.08 83.2515 385.013 80.6866L385.14 80.3497C387.105 75.3313 391.608 71.8324 396.873 71.0976C397.673 70.9859 398.231 70.2468 398.119 69.4467C398.008 68.6466 397.269 68.0886 396.469 68.2003L396.098 68.256C390.431 69.1689 385.541 72.7661 383.005 77.9432L382.917 78.1275L382.971 77.9176C383.053 77.6121 383.153 77.2906 383.274 76.9576C385.288 71.4247 390.349 67.6764 396.121 67.2646C396.927 67.2071 397.534 66.5073 397.476 65.7015Z" fill="#23214C"/>
<path fill-rule="evenodd" clip-rule="evenodd" d="M389.767 53.9165C390.573 53.859 391.273 54.4656 391.33 55.2714C391.388 56.0771 390.781 56.7769 389.975 56.8344C380.794 57.4895 372.743 63.4521 369.539 72.2534C368.59 74.8624 368.413 77.093 368.753 78.2227L368.795 78.3488L368.86 78.2555C369.023 78.0078 369.207 77.652 369.387 77.1906L369.464 76.9864C372.848 67.6899 381.052 61.1793 390.674 59.8361C391.474 59.7245 392.213 60.2825 392.325 61.0826C392.437 61.8826 391.879 62.6217 391.078 62.7334C382.661 63.9084 375.466 69.5262 372.367 77.5756L372.213 77.9869C370.958 81.4344 368.245 82.9237 366.51 80.2839C365.322 78.475 365.405 75.0601 366.791 71.2529C370.392 61.3574 379.445 54.6529 389.767 53.9165Z" fill="#23214C"/>
<path d="M298.673 244.355C329.338 230.012 354.977 222.435 370.939 221.044C375.827 220.618 378.044 223.313 376.806 227.697C375.887 230.951 373.088 235.418 368.797 240.708C361.318 249.928 351.456 257.819 341.635 265.158C357.347 250.656 361.354 244.59 366.2 238.616L366.961 237.666C370.554 233.123 372.876 229.328 373.591 226.795L373.693 226.411C374.138 224.583 373.622 224.15 371.23 224.359C355.629 225.718 330.088 233.31 299.536 247.634C268.934 261.981 268.058 258.675 298.673 244.355Z" fill="white"/>
<path d="M158.426 197.955L158.651 198.488C160.204 202.172 161.818 205.82 163.651 209.798L164.363 211.342C164.13 211.499 163.822 211.665 163.485 211.813C163 212.024 162.508 212.173 162.137 212.223L162.019 212.235L161.841 212.021C160.457 210.317 158.85 207.42 157.688 204.54C157.07 203.006 156.629 201.599 156.431 200.518C156.35 200.077 156.312 199.707 156.316 199.426L156.324 199.241C156.327 199.196 156.327 199.173 156.316 199.17L156.36 199.14C156.607 198.97 157.239 198.6 158.177 198.09L158.426 197.955Z" fill="white"/>
<path fill-rule="evenodd" clip-rule="evenodd" d="M197.191 184.611C198.151 183.436 199.396 183.611 200.972 184.568L201.377 184.823L202.51 185.574C202.827 185.777 202.965 185.847 203.149 185.921C203.578 186.092 203.788 186.578 203.617 187.007C203.446 187.436 202.96 187.645 202.531 187.474L202.378 187.411C202.089 187.287 201.87 187.158 201.282 186.769L200.469 186.227C200.335 186.139 200.219 186.066 200.105 185.997C199.162 185.425 198.734 185.365 198.486 185.669C198.329 185.86 198.368 186.269 198.679 187.106L199.02 187.985C199.698 189.784 199.702 190.589 198.494 191.275C197.455 191.867 196.921 191.59 195.428 190.128L195.066 189.769C194.11 188.814 193.609 188.482 193.286 188.55C193.179 188.573 193.054 188.649 192.901 188.811C192.722 189.002 192.671 189.613 192.781 190.696L192.949 192.111C193.146 193.84 193.067 194.288 192.353 194.766C191.37 195.424 190.061 194.68 187.637 192.503C187.293 192.195 187.265 191.666 187.573 191.323C187.882 190.979 188.41 190.951 188.754 191.259C189.79 192.19 190.573 192.796 191.12 193.107L191.242 193.174L191.344 193.225L191.347 193.12L191.34 192.87C191.329 192.665 191.304 192.417 191.253 191.995L191.146 191.127C190.943 189.367 191.006 188.388 191.682 187.668C192.057 187.268 192.478 187.012 192.94 186.914C194.014 186.687 194.776 187.146 196.043 188.384L196.682 189.013C197.372 189.676 197.627 189.845 197.668 189.822C197.824 189.733 197.8 189.456 197.377 188.369L197.192 187.898C196.601 186.38 196.488 185.472 197.191 184.611Z" fill="#23214C"/>
<path fill-rule="evenodd" clip-rule="evenodd" d="M288.439 48.5669L287.645 48.6377C286.928 48.7072 286.402 49.3455 286.471 50.0634C286.513 50.4974 286.763 50.8612 287.113 51.0656L286.975 51.1637C286.386 51.58 286.246 52.395 286.662 52.984C287.079 53.573 287.894 53.713 288.483 53.2967L289.825 52.3463C289.786 52.6536 289.752 52.971 289.723 53.2995L289.593 54.9405C289.533 55.6593 290.067 56.2904 290.786 56.3501C291.505 56.4098 292.136 55.8755 292.196 55.1567L292.357 53.193C292.399 52.7727 292.45 52.3788 292.514 52.0061C292.972 52.8761 293.064 53.5463 292.967 54.1802L292.929 54.3957L292.912 54.5284C292.864 55.1885 293.322 55.7912 293.988 55.9086C294.699 56.0339 295.376 55.5596 295.501 54.8493L295.546 54.5963C295.684 53.715 295.621 52.8278 295.264 51.8429C295.451 51.977 295.611 52.1263 295.755 52.2895L295.896 52.4571L295.986 52.5551C296.461 53.0165 297.217 53.0527 297.735 52.6181C298.288 52.1545 298.36 51.3307 297.896 50.7782L297.731 50.5816C297.672 50.5142 297.613 50.4484 297.551 50.3841C298.233 50.4238 298.837 49.9271 298.922 49.2396C299.01 48.5237 298.501 47.872 297.785 47.784C296.554 47.6326 295.477 47.5985 294.487 47.6875C294.842 47.2693 295.254 46.8447 295.733 46.3977C296.261 45.9059 296.29 45.0795 295.798 44.5519C295.306 44.0244 294.48 43.9954 293.952 44.4872C293.067 45.3122 292.362 46.0963 291.8 46.8914C291.583 46.6613 291.355 46.4254 291.116 46.1834L290.552 45.6208C290.037 45.1155 289.21 45.1231 288.705 45.6377C288.2 46.1524 288.207 46.9793 288.722 47.4846C289.079 47.8354 289.409 48.1675 289.713 48.4821C289.308 48.5025 288.884 48.5307 288.439 48.5669Z" fill="#23214C"/>
<path fill-rule="evenodd" clip-rule="evenodd" d="M238.109 57.6157C237.796 57.2943 237.288 57.3033 236.975 57.6358C236.663 57.9683 236.663 58.4983 236.977 58.8198C237.274 59.1246 237.54 59.4071 237.777 59.6701C237.275 59.883 236.771 60.1587 236.231 60.4992L235.412 61.0245C235.052 61.2536 234.974 61.7118 235.237 62.0481C235.499 62.3843 236.004 62.4712 236.364 62.2421L237.345 61.6155C237.858 61.3014 238.321 61.0637 238.785 60.8969C239.491 61.8787 239.639 62.508 239.549 63.0914L239.525 63.2298L239.514 63.3149C239.481 63.7384 239.759 64.1225 240.168 64.1945C240.603 64.2713 241.021 63.9638 241.102 63.5078L241.13 63.3454C241.264 62.4992 241.12 61.6466 240.514 60.5935C240.925 60.5871 241.374 60.6176 241.882 60.6826C242.325 60.7392 242.723 60.4585 242.77 60.0556C242.817 59.6528 242.497 59.2803 242.054 59.2237C241.083 59.0995 240.269 59.0854 239.524 59.186C239.218 58.8091 238.862 58.4068 238.453 57.9737L238.109 57.6157Z" fill="white"/>
<path fill-rule="evenodd" clip-rule="evenodd" d="M69.8077 275.336L70.7077 277.336L72.7592 277.925C72.8701 277.957 72.9342 278.073 72.9024 278.183C72.8926 278.218 72.8742 278.249 72.8489 278.274L71.2903 279.826L71.3776 282.059C71.3821 282.174 71.2923 282.271 71.177 282.276C71.1379 282.277 71.0993 282.268 71.0654 282.248L69.3008 281.243C69.2457 281.212 69.1792 281.207 69.1203 281.231L67.233 281.98C67.1257 282.023 67.0042 281.971 66.9616 281.863C66.9472 281.827 66.9433 281.787 66.9502 281.749L67.3475 279.55L66.0199 277.796C65.9503 277.704 65.9684 277.573 66.0604 277.504C66.0887 277.482 66.1221 277.468 66.1574 277.463L68.2709 277.166L69.4404 275.311C69.5019 275.213 69.631 275.184 69.7286 275.245C69.7633 275.267 69.7909 275.299 69.8077 275.336Z" fill="#23214C"/>
<path fill-rule="evenodd" clip-rule="evenodd" d="M81.8077 164.336L82.7077 166.336L84.7592 166.925C84.8701 166.957 84.9342 167.073 84.9024 167.183C84.8926 167.218 84.8742 167.249 84.8489 167.274L83.2903 168.826L83.3776 171.059C83.3821 171.174 83.2923 171.271 83.177 171.276C83.1379 171.277 83.0993 171.268 83.0654 171.248L81.3008 170.243C81.2457 170.212 81.1792 170.207 81.1203 170.231L79.233 170.98C79.1257 171.023 79.0042 170.971 78.9616 170.863C78.9472 170.827 78.9433 170.787 78.9502 170.749L79.3475 168.55L78.0199 166.796C77.9503 166.704 77.9684 166.573 78.0604 166.504C78.0887 166.482 78.1221 166.468 78.1574 166.463L80.2709 166.166L81.4404 164.311C81.5019 164.213 81.631 164.184 81.7286 164.245C81.7633 164.267 81.7909 164.299 81.8077 164.336Z" fill="#23214C"/>
<path d="M108.99 341.061C109.66 340.574 110.598 340.723 111.085 341.393C111.572 342.064 90.3502 359.349 82.1178 367.27L81.161 368.198C76.4589 372.799 72.992 376.783 71.0379 379.932C68.9671 383.27 68.8343 385.082 70.1712 385.823C75.2433 388.634 82.536 390.004 92.9805 388.274L94.0538 388.091C98.0295 387.394 127.936 380.872 127.462 381.045L127.279 381.1C126.336 381.35 114.158 385.561 109.955 386.631L109.447 386.76C103.022 388.376 97.994 389.484 93.4708 390.233C82.4181 392.064 74.5214 391.664 68.717 388.447C65.3676 386.591 65.6343 382.951 68.4887 378.351C70.7338 374.733 74.6828 370.261 80.0377 365.108C88.3802 357.081 100.114 347.506 108.99 341.061Z" fill="white"/>
<path fill-rule="evenodd" clip-rule="evenodd" d="M265.244 133.132C265.61 132.888 266.101 132.992 266.341 133.364L271.756 141.754C271.996 142.126 271.894 142.625 271.528 142.868C271.161 143.112 270.67 143.008 270.43 142.636L265.015 134.246C264.776 133.874 264.878 133.375 265.244 133.132Z" fill="#23214C"/>
<path fill-rule="evenodd" clip-rule="evenodd" d="M265.509 126.933C265.928 126.686 266.482 126.81 266.747 127.21L270.473 132.854C270.737 133.254 270.612 133.779 270.192 134.026C269.773 134.273 269.219 134.149 268.954 133.748L265.228 128.104C264.964 127.704 265.089 127.18 265.509 126.933Z" fill="#23214C"/>
</svg>
