<svg width="24" height="24" viewBox="0 0 24 24" fill="none" xmlns="http://www.w3.org/2000/svg">
<g id="people">
<path id="Stroke 1 Copy 3" fill-rule="evenodd" clip-rule="evenodd" d="M12 19C12.567 18.6092 14.2982 16.571 15.0025 16.2318C15.5532 15.9665 16.0845 15.6659 16.5004 15.25C17.2504 14.5 15.0004 14.5 15.0004 10.75C15.0004 8.25025 16.0002 7 18.0004 7C20.0007 7 21.0004 8.25025 21.0004 10.75C21.0004 14.5 18.7504 14.5 19.5004 15.25C21.0004 16.75 24.0004 16.75 24.0004 19" fill="#39375E"/>
<path id="Stroke 1 Copy" fill-rule="evenodd" clip-rule="evenodd" d="M1.99963 19C1.5 17.5 4.99963 16.75 6.49963 15.25C7.24963 14.5 4.99963 14.5 4.99963 10.75C4.99963 8.25025 5.99938 7 7.99963 7C9.99988 7 10.9996 8.25025 10.9996 10.75C10.9996 14.5 8.74963 14.5 9.49963 15.25C10.9996 16.75 13.9996 16.75 13.9996 19" fill="#39375E"/>
<path id="Stroke 1 Copy 2" d="M11.9951 16.2431C12.5621 15.8523 13.2982 15.571 14.0025 15.2318C14.5532 14.9665 15.0844 14.6659 15.5004 14.25C16.2504 13.5 14.0004 13.5 14.0004 9.75C14.0004 7.25025 15.0001 6 17.0004 6C19.0006 6 20.0004 7.25025 20.0004 9.75C20.0004 13.5 17.7504 13.5 18.5004 14.25C20.0004 15.75 23.0004 15.75 23.0004 18" stroke="white" stroke-linecap="round"/>
<path id="Stroke 1 Copy_2" d="M1 18C1 15.75 4 15.75 5.5 14.25C6.25 13.5 4 13.5 4 9.75C4 7.25025 4.99975 6 7 6C9.00025 6 10 7.25025 10 9.75C10 13.5 7.75 13.5 8.5 14.25C10 15.75 13 15.75 13 18" stroke="white" stroke-linecap="round"/>
</g>
</svg>
