<svg width="25" height="24" viewBox="0 0 25 24" fill="none" xmlns="http://www.w3.org/2000/svg">
<g id="people">
<path id="Stroke 1 Copy 3" fill-rule="evenodd" clip-rule="evenodd" d="M13 20C13.567 19.6092 15.2982 17.571 16.0025 17.2318C16.5532 16.9665 17.0845 16.6659 17.5004 16.25C18.2504 15.5 16.0004 15.5 16.0004 11.75C16.0004 9.25025 17.0002 8 19.0004 8C21.0007 8 22.0004 9.25025 22.0004 11.75C22.0004 15.5 19.7504 15.5 20.5004 16.25C22.0004 17.75 25.0004 17.75 25.0004 20" fill="#3F82B4"/>
<path id="Stroke 1 Copy" fill-rule="evenodd" clip-rule="evenodd" d="M2.99963 20C2.5 18.5 5.99963 17.75 7.49963 16.25C8.24963 15.5 5.99963 15.5 5.99963 11.75C5.99963 9.25025 6.99938 8 8.99963 8C10.9999 8 11.9996 9.25025 11.9996 11.75C11.9996 15.5 9.74963 15.5 10.4996 16.25C11.9996 17.75 14.9996 17.75 14.9996 20" fill="#3F82B4"/>
<g id="Group 189">
<path id="Stroke 1 Copy 2" d="M11.9951 16.2431C12.5621 15.8523 13.2982 15.571 14.0025 15.2318C14.5532 14.9665 15.0844 14.6659 15.5004 14.25C16.2504 13.5 14.0004 13.5 14.0004 9.75C14.0004 7.25025 15.0001 6 17.0004 6C19.0006 6 20.0004 7.25025 20.0004 9.75C20.0004 13.5 17.7504 13.5 18.5004 14.25C20.0004 15.75 23.0004 15.75 23.0004 18" stroke="white" stroke-linecap="round"/>
<path id="Stroke 1 Copy_2" d="M1 18C1 15.75 4 15.75 5.5 14.25C6.25 13.5 4 13.5 4 9.75C4 7.25025 4.99975 6 7 6C9.00025 6 10 7.25025 10 9.75C10 13.5 7.75 13.5 8.5 14.25C10 15.75 13 15.75 13 18" stroke="white" stroke-linecap="round"/>
</g>
</g>
</svg>
