<svg width="13" height="13" viewBox="0 0 13 13" fill="none" xmlns="http://www.w3.org/2000/svg">
<path d="M6.50038 2.11955C6.65582 2.11955 6.78299 1.99237 6.78299 1.83694V1.69563C6.78299 1.5402 6.65582 1.41302 6.50038 1.41302C6.34495 1.41302 6.21777 1.5402 6.21777 1.69563V1.83694C6.21777 1.99237 6.34495 2.11955 6.50038 2.11955Z" fill="#49A2D7"/>
<path d="M6.50038 10.8804C6.34495 10.8804 6.21777 11.0076 6.21777 11.163V11.3043C6.21777 11.4598 6.34495 11.587 6.50038 11.587C6.65582 11.587 6.78299 11.4598 6.78299 11.3043V11.163C6.78299 11.0076 6.65582 10.8804 6.50038 10.8804Z" fill="#49A2D7"/>
<path d="M1.837 6.21735H1.69569C1.54026 6.21735 1.41309 6.34452 1.41309 6.49995C1.41309 6.65539 1.54026 6.78256 1.69569 6.78256H1.837C1.99243 6.78256 2.11961 6.65539 2.11961 6.49995C2.11961 6.34452 1.99243 6.21735 1.837 6.21735Z" fill="#49A2D7"/>
<path d="M11.3048 6.21735H11.1635C11.008 6.21735 10.8809 6.34452 10.8809 6.49995C10.8809 6.65539 11.008 6.78256 11.1635 6.78256H11.3048C11.4602 6.78256 11.5874 6.65539 11.5874 6.49995C11.5874 6.34452 11.4602 6.21735 11.3048 6.21735Z" fill="#49A2D7"/>
<path d="M3.30661 2.91083C3.19356 2.79779 3.024 2.79779 2.91095 2.91083C2.79791 3.02388 2.79791 3.19344 2.91095 3.30648L3.00987 3.4054C3.06639 3.46192 3.13704 3.49018 3.20769 3.49018C3.27835 3.49018 3.349 3.46192 3.40552 3.4054C3.51856 3.29235 3.51856 3.12279 3.40552 3.00975L3.30661 2.91083Z" fill="#49A2D7"/>
<path d="M3.00987 9.59461L2.91095 9.69352C2.79791 9.80657 2.79791 9.97613 2.91095 10.0892C2.96748 10.1457 3.03813 10.174 3.10878 10.174C3.17943 10.174 3.25009 10.1457 3.30661 10.0892L3.40552 9.99026C3.51856 9.87722 3.51856 9.70765 3.40552 9.59461C3.29248 9.48157 3.12291 9.48157 3.00987 9.59461Z" fill="#49A2D7"/>
<path d="M9.69346 2.91083L9.59455 3.00975C9.4815 3.12279 9.4815 3.29235 9.59455 3.4054C9.65107 3.46192 9.72172 3.49018 9.79238 3.49018C9.86303 3.49018 9.93368 3.46192 9.9902 3.4054L10.0891 3.30648C10.2022 3.19344 10.2022 3.02388 10.0891 2.91083C9.97607 2.79779 9.80651 2.79779 9.69346 2.91083Z" fill="#49A2D7"/>
<path d="M6.78299 6.387V3.81526C6.78299 3.65983 6.65582 3.53265 6.50038 3.53265C6.34495 3.53265 6.21777 3.65983 6.21777 3.81526V6.50005C6.21777 6.5707 6.24603 6.64135 6.30256 6.69787L9.39712 9.79244C9.45364 9.84896 9.52429 9.87722 9.59494 9.87722C9.66559 9.87722 9.73625 9.84896 9.79277 9.79244C9.90581 9.67939 9.90581 9.50983 9.79277 9.39679L6.78299 6.387Z" fill="#49A2D7"/>
<path d="M6.5 0C2.91087 0 0 2.91087 0 6.5C0 10.0891 2.91087 13 6.5 13C10.0891 13 13 10.0891 13 6.5C13 2.91087 10.0891 0 6.5 0ZM6.5 12.4348C3.22174 12.4348 0.565217 9.77826 0.565217 6.5C0.565217 3.22174 3.22174 0.565217 6.5 0.565217C9.77826 0.565217 12.4348 3.22174 12.4348 6.5C12.4348 9.77826 9.77826 12.4348 6.5 12.4348Z" fill="#49A2D7"/>
</svg>
