<svg width="24" height="24" viewBox="0 0 24 24" fill="none" xmlns="http://www.w3.org/2000/svg">
<path fill-rule="evenodd" clip-rule="evenodd" d="M13.6903 6C12.8295 6 12.0652 6.55086 11.793 7.36755L11.4855 8.29001C11.1069 8.46054 10.7487 8.66839 10.4156 8.90886L9.46149 8.71362C8.61811 8.54103 7.75891 8.92749 7.32848 9.67301L7.01807 10.2107C6.58764 10.9562 6.68256 11.8935 7.25372 12.5376L7.8999 13.2663C7.87961 13.4693 7.86921 13.6753 7.86921 13.8837C7.86921 14.092 7.8796 14.2979 7.89989 14.5009L7.25362 15.2297C6.68246 15.8738 6.58754 16.8111 7.01797 17.5566L7.32838 18.0943C7.75881 18.8398 8.61801 19.2263 9.46139 19.0537L10.4155 18.8584C10.7486 19.0989 11.1068 19.3068 11.4855 19.4774L11.793 20.3998C12.0652 21.2165 12.8295 21.7673 13.6903 21.7673H14.3112C15.172 21.7673 15.9363 21.2165 16.2085 20.3998L16.5159 19.4776C16.8947 19.307 17.253 19.0991 17.5863 18.8586L18.54 19.0537C19.3833 19.2263 20.2425 18.8398 20.673 18.0943L20.9834 17.5567C21.4138 16.8112 21.3189 15.8738 20.7477 15.2297L20.1019 14.5015C20.1223 14.2983 20.1327 14.0922 20.1327 13.8837C20.1327 13.6751 20.1223 13.4689 20.1019 13.2657L20.7476 12.5375C21.3188 11.8935 21.4137 10.9561 20.9833 10.2106L20.6729 9.67297C20.2424 8.92744 19.3832 8.54099 18.5399 8.71357L17.5861 8.90874C17.253 8.66822 16.8947 8.46034 16.5159 8.2898L16.2085 7.36754C15.9363 6.55086 15.172 6 14.3112 6H13.6903Z" fill="#3F82B4"/>
<path fill-rule="evenodd" clip-rule="evenodd" d="M14 15C14.5523 15 15 14.5523 15 14C15 13.4477 14.5523 13 14 13C13.4477 13 13 13.4477 13 14C13 14.5523 13.4477 15 14 15Z" fill="#23214C"/>
<path d="M9.79298 5.36755L9.31864 5.20943L9.31864 5.20943L9.79298 5.36755ZM9.48549 6.29001L9.69082 6.7459L9.89056 6.65594L9.95983 6.44812L9.48549 6.29001ZM8.41558 6.90886L8.31534 7.39871L8.53033 7.4427L8.70826 7.31425L8.41558 6.90886ZM7.46149 6.71362L7.56173 6.22377L7.56173 6.22377L7.46149 6.71362ZM5.32848 7.67301L4.89547 7.42301L4.89547 7.42301L5.32848 7.67301ZM5.01807 8.21066L5.45108 8.46066L5.45108 8.46066L5.01807 8.21066ZM5.25372 10.5376L4.87961 10.8693L4.87961 10.8693L5.25372 10.5376ZM5.8999 11.2663L6.39742 11.3161L6.41919 11.0983L6.27401 10.9346L5.8999 11.2663ZM5.89989 12.5009L6.27399 12.8326L6.41917 12.6689L6.39741 12.4512L5.89989 12.5009ZM5.25362 13.2297L4.87952 12.898L4.87952 12.898L5.25362 13.2297ZM5.01797 15.5566L5.45099 15.3066L5.45099 15.3066L5.01797 15.5566ZM5.32838 16.0943L4.89537 16.3443L4.89537 16.3443L5.32838 16.0943ZM7.46139 17.0537L7.56163 17.5435L7.56163 17.5435L7.46139 17.0537ZM8.41547 16.8584L8.70815 16.453L8.53023 16.3246L8.31523 16.3686L8.41547 16.8584ZM9.48551 17.4774L9.95985 17.3193L9.89058 17.1114L9.69084 17.0215L9.48551 17.4774ZM9.79298 18.3998L9.31864 18.5579L9.31864 18.5579L9.79298 18.3998ZM14.2085 18.3998L14.6829 18.5579L14.6829 18.5579L14.2085 18.3998ZM14.5159 17.4776L14.3106 17.0217L14.1109 17.1116L14.0416 17.3195L14.5159 17.4776ZM15.5863 16.8586L15.6865 16.3687L15.4715 16.3247L15.2936 16.4532L15.5863 16.8586ZM16.54 17.0537L16.6402 16.5639L16.6402 16.5639L16.54 17.0537ZM18.673 16.0943L19.106 16.3443L19.106 16.3443L18.673 16.0943ZM18.9834 15.5567L18.5504 15.3067L18.5504 15.3067L18.9834 15.5567ZM18.7477 13.2297L18.3736 13.5615L18.3736 13.5615L18.7477 13.2297ZM18.1019 12.5015L17.6044 12.4517L17.5826 12.6695L17.7278 12.8332L18.1019 12.5015ZM18.1019 11.2657L17.7278 10.934L17.5826 11.0977L17.6044 11.3155L18.1019 11.2657ZM18.7476 10.5375L18.3735 10.2058L18.3735 10.2058L18.7476 10.5375ZM18.9833 8.21061L18.5503 8.46061L18.5503 8.46061L18.9833 8.21061ZM18.6729 7.67297L19.1059 7.42297L19.1059 7.42297L18.6729 7.67297ZM16.5399 6.71357L16.6401 7.20342L16.6401 7.20342L16.5399 6.71357ZM15.5861 6.90874L15.2935 7.31414L15.4714 7.44258L15.6864 7.39859L15.5861 6.90874ZM14.5159 6.2898L14.0416 6.44791L14.1109 6.65576L14.3106 6.74571L14.5159 6.2898ZM14.2085 5.36754L13.7342 5.52566L13.7342 5.52566L14.2085 5.36754ZM10.2673 5.52566C10.4715 4.91315 11.0447 4.5 11.6903 4.5V3.5C10.6143 3.5 9.65892 4.18858 9.31864 5.20943L10.2673 5.52566ZM9.95983 6.44812L10.2673 5.52566L9.31864 5.20943L9.01115 6.13189L9.95983 6.44812ZM8.70826 7.31425C9.01427 7.09332 9.34324 6.90245 9.69082 6.7459L9.28016 5.83411C8.87049 6.01863 8.48306 6.24345 8.1229 6.50347L8.70826 7.31425ZM7.36125 7.20347L8.31534 7.39871L8.51582 6.41901L7.56173 6.22377L7.36125 7.20347ZM5.76149 7.92301C6.08431 7.36387 6.72871 7.07403 7.36125 7.20347L7.56173 6.22377C6.5075 6.00804 5.4335 6.4911 4.89547 7.42301L5.76149 7.92301ZM5.45108 8.46066L5.76149 7.92301L4.89547 7.42301L4.58506 7.96066L5.45108 8.46066ZM5.62782 10.2059C5.19945 9.72279 5.12826 9.0198 5.45108 8.46066L4.58506 7.96066C4.04702 8.89256 4.16567 10.0642 4.87961 10.8693L5.62782 10.2059ZM6.27401 10.9346L5.62782 10.2059L4.87961 10.8693L5.5258 11.598L6.27401 10.9346ZM6.36921 11.8837C6.36921 11.6919 6.37877 11.5026 6.39742 11.3161L5.40239 11.2166C5.38044 11.4361 5.36921 11.6587 5.36921 11.8837H6.36921ZM6.39741 12.4512C6.37877 12.2647 6.36921 12.0754 6.36921 11.8837H5.36921C5.36921 12.1086 5.38043 12.3311 5.40237 12.5506L6.39741 12.4512ZM5.62772 13.5614L6.27399 12.8326L5.52579 12.1692L4.87952 12.898L5.62772 13.5614ZM5.45099 15.3066C5.12816 14.7475 5.19935 14.0445 5.62772 13.5614L4.87952 12.898C4.16557 13.7031 4.04692 14.8747 4.58496 15.8066L5.45099 15.3066ZM5.76139 15.8443L5.45099 15.3066L4.58496 15.8066L4.89537 16.3443L5.76139 15.8443ZM7.36115 16.5638C6.72861 16.6933 6.08421 16.4034 5.76139 15.8443L4.89537 16.3443C5.43341 17.2762 6.5074 17.7592 7.56163 17.5435L7.36115 16.5638ZM8.31523 16.3686L7.36115 16.5638L7.56163 17.5435L8.51571 17.3483L8.31523 16.3686ZM9.69084 17.0215C9.34321 16.8649 9.0142 16.674 8.70815 16.453L8.12278 17.2638C8.48297 17.5239 8.87045 17.7487 9.28018 17.9333L9.69084 17.0215ZM10.2673 18.2417L9.95985 17.3193L9.01117 17.6355L9.31864 18.5579L10.2673 18.2417ZM11.6903 19.2673C11.0447 19.2673 10.4715 18.8542 10.2673 18.2417L9.31864 18.5579C9.65892 19.5787 10.6143 20.2673 11.6903 20.2673V19.2673ZM12.3112 19.2673H11.6903V20.2673H12.3112V19.2673ZM13.7342 18.2417C13.53 18.8542 12.9568 19.2673 12.3112 19.2673V20.2673C13.3872 20.2673 14.3426 19.5787 14.6829 18.5579L13.7342 18.2417ZM14.0416 17.3195L13.7342 18.2417L14.6829 18.5579L14.9903 17.6357L14.0416 17.3195ZM15.2936 16.4532C14.9875 16.6742 14.6584 16.8651 14.3106 17.0217L14.7212 17.9335C15.1311 17.7489 15.5186 17.5241 15.8789 17.2639L15.2936 16.4532ZM16.6402 16.5639L15.6865 16.3687L15.486 17.3484L16.4397 17.5436L16.6402 16.5639ZM18.24 15.8443C17.9171 16.4035 17.2727 16.6933 16.6402 16.5639L16.4397 17.5436C17.494 17.7593 18.5679 17.2762 19.106 16.3443L18.24 15.8443ZM18.5504 15.3067L18.24 15.8443L19.106 16.3443L19.4164 15.8067L18.5504 15.3067ZM18.3736 13.5615C18.802 14.0445 18.8732 14.7475 18.5504 15.3067L19.4164 15.8067C19.9544 14.8748 19.8358 13.7031 19.1218 12.898L18.3736 13.5615ZM17.7278 12.8332L18.3736 13.5615L19.1218 12.898L18.4761 12.1697L17.7278 12.8332ZM17.6327 11.8837C17.6327 12.0756 17.6231 12.265 17.6044 12.4517L18.5995 12.5513C18.6214 12.3316 18.6327 12.1089 18.6327 11.8837H17.6327ZM17.6044 11.3155C17.6231 11.5022 17.6327 11.6918 17.6327 11.8837H18.6327C18.6327 11.6584 18.6214 11.4357 18.5994 11.2159L17.6044 11.3155ZM18.3735 10.2058L17.7278 10.934L18.476 11.5975L19.1217 10.8693L18.3735 10.2058ZM18.5503 8.46061C18.8731 9.01975 18.8019 9.72274 18.3735 10.2058L19.1217 10.8693C19.8357 10.0642 19.9543 8.89252 19.4163 7.96061L18.5503 8.46061ZM18.2399 7.92297L18.5503 8.46061L19.4163 7.96061L19.1059 7.42297L18.2399 7.92297ZM16.6401 7.20342C17.2726 7.07398 17.917 7.36382 18.2399 7.92297L19.1059 7.42297C18.5679 6.49106 17.4939 6.00799 16.4396 6.22373L16.6401 7.20342ZM15.6864 7.39859L16.6401 7.20342L16.4396 6.22373L15.4859 6.41889L15.6864 7.39859ZM14.3106 6.74571C14.6583 6.90227 14.9874 7.09316 15.2935 7.31414L15.8788 6.50334C15.5186 6.24327 15.131 6.01841 14.7212 5.83389L14.3106 6.74571ZM13.7342 5.52566L14.0416 6.44791L14.9903 6.13168L14.6829 5.20943L13.7342 5.52566ZM12.3112 4.5C12.9568 4.5 13.53 4.91315 13.7342 5.52566L14.6829 5.20943C14.3426 4.18858 13.3872 3.5 12.3112 3.5V4.5ZM11.6903 4.5H12.3112V3.5H11.6903V4.5Z" fill="white"/>
<path fill-rule="evenodd" clip-rule="evenodd" d="M12 13C12.5523 13 13 12.5523 13 12C13 11.4477 12.5523 11 12 11C11.4477 11 11 11.4477 11 12C11 12.5523 11.4477 13 12 13Z" stroke="white" stroke-width="0.5"/>
</svg>
