<svg width="29" height="27" viewBox="0 0 29 27" fill="none" xmlns="http://www.w3.org/2000/svg">
<path d="M28.8323 19.1563C28.8323 19.1563 24.7219 15.2204 24.4997 15.0001C24.2775 14.7797 24 15.5 24 15.5C24 15.5 23.7781 15.7797 24.0002 16C24.2224 16.2203 28.0344 19.9608 28.0344 19.9608C28.1448 20.0704 28.2891 20.1251 28.4333 20.1251C28.579 20.1251 28.7248 20.0692 28.8355 19.9575C29.056 19.7353 29.0545 19.3766 28.8323 19.1563Z" fill="#49A2D7"/>
<path d="M21.2115 18.9942L26.7073 13.4985C27.5396 12.6661 27.5396 11.3117 26.7072 10.4793C26.4137 10.1858 26.0552 9.99628 25.6777 9.90979C25.8071 9.63146 25.8757 9.326 25.8757 9.00989C25.8757 8.43963 25.6536 7.90353 25.2504 7.50036C24.9342 7.18408 24.5361 6.97983 24.104 6.90625C24.3472 6.16506 24.1753 5.31618 23.5869 4.72791C23.2635 4.40449 22.8611 4.20739 22.4413 4.13534C22.5116 3.92186 22.5487 3.69643 22.5487 3.46511C22.5487 2.89485 22.3266 2.35875 21.9235 1.95558C21.5202 1.55241 20.9841 1.33032 20.4139 1.33032C20.0518 1.33032 19.7037 1.42016 19.3943 1.58883L19.3397 1.5301C18.6293 0.766694 17.6238 0.328918 16.5811 0.328918H12.1325C11.8197 0.328918 11.566 0.582612 11.566 0.895438V1.63834C11.566 1.93564 11.6163 2.22508 11.7125 2.49723C11.4562 2.39081 11.179 2.3349 10.8932 2.3349C10.3229 2.3349 9.78679 2.55699 9.38357 2.96016C8.79496 3.54877 8.62317 4.39826 8.86701 5.13969C8.44679 5.21157 8.0439 5.40879 7.72015 5.73249C7.31698 6.13572 7.09489 6.67182 7.09489 7.24202C7.09489 7.47289 7.13188 7.69798 7.20194 7.911C6.77034 7.9848 6.37261 8.18894 6.05667 8.50494C5.4066 9.155 5.26426 10.1236 5.62965 10.9131C5.24274 11.0015 4.88738 11.1963 4.59976 11.4839C3.76742 12.3162 3.76742 13.6706 4.59976 14.503L5.72996 15.6332L0.165929 21.1971C-0.0553096 21.4183 -0.0553096 21.777 0.165929 21.9983C0.276548 22.1089 0.421548 22.1643 0.566491 22.1643C0.711435 22.1643 0.856435 22.1089 0.967054 21.9983L6.58478 16.3806C6.90282 16.5621 7.26374 16.6591 7.63989 16.6591C8.21009 16.6591 8.74619 16.4371 9.14942 16.0338C9.58747 15.5958 9.79466 15.0132 9.77161 14.4382C9.80033 14.4393 9.82905 14.4402 9.85776 14.4402C10.4043 14.4401 10.9512 14.232 11.3673 13.816C11.7705 13.4127 11.9925 12.8766 11.9925 12.3064C11.9925 12.2776 11.9916 12.2489 11.9905 12.2203C12.0188 12.2214 12.0472 12.2223 12.0756 12.2223C12.6223 12.2223 13.169 12.0142 13.5852 11.5981C13.9883 11.1949 14.2104 10.6588 14.2104 10.0886C14.2104 10.0597 14.2095 10.0311 14.2083 10.0024C14.2367 10.0035 14.2651 10.0044 14.2935 10.0044C14.8402 10.0044 15.3869 9.79634 15.803 9.3802C16.5851 8.59811 16.6322 7.35524 15.9446 6.51747L19.7052 2.75688C19.8945 2.56758 20.146 2.46342 20.4136 2.46342C20.6812 2.46342 20.9328 2.56758 21.122 2.75688C21.3112 2.94611 21.4154 3.1976 21.4154 3.46522C21.4154 3.73279 21.3112 3.98439 21.1219 4.17357L20.5675 4.72803L18.5557 6.73979C18.3345 6.96103 18.3345 7.31973 18.5557 7.54103C18.6663 7.65159 18.8113 7.70698 18.9563 7.70698C19.1012 7.70698 19.2462 7.65165 19.3568 7.54103L21.3686 5.52926C21.7591 5.13867 22.3947 5.13861 22.7854 5.52921C23.176 5.91986 23.176 6.55537 22.7854 6.94602L22.2309 7.50053L20.7736 8.95778C20.5524 9.17902 20.5524 9.53772 20.7736 9.75902C20.8842 9.86958 21.0292 9.92497 21.1742 9.92497C21.3191 9.92497 21.4641 9.86964 21.5747 9.75902L23.032 8.30177C23.2212 8.11247 23.4728 8.00831 23.7403 8.00831C24.0079 8.00831 24.2595 8.11247 24.4487 8.30177C24.638 8.491 24.7421 8.74249 24.7421 9.01011C24.7421 9.27768 24.638 9.52928 24.4487 9.71846L23.6876 10.4795L22.9914 11.1757C22.7702 11.3969 22.7702 11.7557 22.9914 11.9769C23.102 12.0875 23.247 12.1429 23.392 12.1429C23.5369 12.1429 23.6819 12.0876 23.7925 11.9769L24.4892 11.2803C24.8799 10.8903 25.515 10.8904 25.9055 11.2808C26.2961 11.6714 26.2961 12.3069 25.9055 12.6976L20.4097 18.1933C19.0297 19.5733 17.1957 20.3722 15.2454 20.443C15.102 20.4482 14.9658 20.5077 14.8646 20.6094L9.78776 25.705C9.56691 25.9266 9.56754 26.2853 9.78923 26.5062C9.89973 26.6163 10.0444 26.6714 10.1891 26.6714C10.3343 26.6714 10.4797 26.6158 10.5904 26.5047L14.3245 22.7568C15.273 23.3653 16.3885 23.6546 17.5227 23.5796L20.4453 26.5022C20.5559 26.6128 20.7009 26.6682 20.8458 26.6682C20.9908 26.6682 21.1358 26.6128 21.2464 26.5022C21.4676 26.281 21.4676 25.9223 21.2464 25.701L18.1391 22.5933C18.0214 22.4757 17.858 22.4156 17.6922 22.4292L17.5126 22.444C16.6835 22.5119 15.864 22.3303 15.1486 21.9294L15.5126 21.564C17.6659 21.4312 19.6819 20.5239 21.2115 18.9942ZM8.34829 15.2327C8.15905 15.422 7.90746 15.5262 7.63994 15.5262C7.37232 15.5262 7.12077 15.422 6.93159 15.2327L5.40083 13.702C5.01023 13.3114 5.01023 12.6758 5.40083 12.2852C5.59006 12.0959 5.84166 11.9917 6.10923 11.9917C6.3768 11.9917 6.6284 12.0959 6.81758 12.2852L8.34835 13.8159C8.73888 14.2065 8.73888 14.8421 8.34829 15.2327ZM10.5663 13.0147C10.1756 13.4053 9.53995 13.4053 9.14947 13.0147L7.6187 11.4839L6.85757 10.7228C6.46697 10.3322 6.46697 9.69665 6.85757 9.30606C7.0468 9.11677 7.2984 9.01261 7.56591 9.01261C7.83354 9.01261 8.08508 9.11677 8.27426 9.30606L10.5661 11.5979C10.7554 11.7872 10.8596 12.0387 10.8596 12.3063C10.8596 12.5739 10.7555 12.8255 10.5663 13.0147ZM12.7842 10.7968C12.3935 11.1873 11.7579 11.1874 11.3673 10.7968L8.52099 7.95042C8.33175 7.76119 8.22759 7.5097 8.22759 7.24208C8.22759 6.97451 8.33175 6.72291 8.52104 6.53373C8.71634 6.33843 8.97292 6.24078 9.22939 6.24078C9.48575 6.24078 9.74205 6.33832 9.93729 6.53328L11.2346 7.83057L12.784 9.38003C12.9732 9.56927 13.0774 9.82075 13.0774 10.0884C13.0776 10.356 12.9734 10.6076 12.7842 10.7968ZM15.0021 8.57885C14.6115 8.96945 13.9759 8.96945 13.5853 8.57885L10.739 5.73249L10.738 5.73158L10.1845 5.17804C9.79387 4.78739 9.79387 4.15188 10.1845 3.76123C10.3798 3.56587 10.6363 3.46823 10.8929 3.46823C11.1494 3.46823 11.406 3.56587 11.6012 3.76123L15.002 7.16199C15.1913 7.35122 15.2954 7.60276 15.2954 7.87033C15.2955 8.13802 15.1914 8.38967 15.0021 8.57885ZM15.1511 5.70876L13.595 4.15273C13.7715 4.19039 13.9529 4.21039 14.1375 4.21033C14.1417 4.21033 14.1459 4.21033 14.15 4.21033L15.7047 4.20302C16.0175 4.20155 16.27 3.94673 16.2686 3.63384C16.2671 3.32187 16.0137 3.06999 15.7021 3.06999H15.6994L14.1447 3.07729C14.1423 3.07729 14.1401 3.07729 14.1377 3.07729C13.7546 3.07729 13.3943 2.92861 13.1227 2.65826C12.8494 2.38616 12.6989 2.024 12.6989 1.63828C12.6989 1.25256 12.6989 1.4619 12.6989 1.4619H16.5809C17.3101 1.4619 18.0133 1.76804 18.5102 2.30194L18.5332 2.32669L15.1511 5.70876Z" fill="#49A2D7"/>
</svg>
